<svg width="263" height="520" viewBox="0 0 263 520" fill="none" xmlns="http://www.w3.org/2000/svg">
<path d="M336.043 517.439L336.967 517.71L337.598 516.982L387.545 459.326L460.91 437.858L461.837 437.587L461.974 436.632L472.832 361.114L522.721 303.456L523.352 302.728L522.951 301.851L491.228 232.463L502.086 156.976L502.223 156.022L501.412 155.5L437.202 114.237L405.508 44.8489L405.108 43.9721H404.144H327.843L263.604 2.73767L262.793 2.21746L261.983 2.73784L197.773 43.9721L121.472 43.9721H120.508L120.108 44.8489L88.4141 114.237L24.1457 155.5L23.3337 156.021L23.4715 156.976L34.3588 232.464L2.63581 301.851L2.23512 302.728L2.86568 303.456L52.7533 361.112L63.4351 436.629L63.5706 437.586L64.4991 437.858L137.864 459.326L187.752 516.982L188.383 517.711L189.308 517.439L262.675 495.942L336.043 517.439ZM263.097 466.363L262.675 466.24L262.253 466.364L198.184 485.176L154.394 434.669L154.106 434.336L153.683 434.212L89.4967 415.37L79.9823 349.19L79.9195 348.754L79.6306 348.421L35.8122 297.914L63.5988 237.085L63.7818 236.684L63.7191 236.248L54.2048 170.098L110.477 133.955L110.848 133.717L111.031 133.316L138.788 72.4865H205.71H206.15L206.521 72.2486L262.793 36.1054L319.006 72.2482L319.377 72.4865H319.818H386.741L414.586 133.318L414.769 133.717L415.138 133.954L471.293 170.097L461.779 236.248L461.716 236.684L461.899 237.085L489.686 297.914L445.867 348.421L445.579 348.754L445.516 349.19L436.001 415.37L371.815 434.212L371.393 434.336L371.104 434.669L327.285 485.177L263.097 466.363Z" fill="#F7532B" stroke="#161616" stroke-width="3"/>
</svg>
