<svg xmlns="http://www.w3.org/2000/svg" width="298" height="313" fill="none" viewBox="0 0 298 313"><path fill="#F7532B" stroke="#000" stroke-width="2" d="M290.838 111.665L293.641 109.746L290.245 109.84L210.306 112.049L237.111 36.7574L238.249 33.5598L235.559 35.6294L172.197 84.3735L149.596 7.7172L148.636 4.46399L147.677 7.7172L125.076 84.3735L61.7135 35.6294L59.0233 33.5598L60.1617 36.7574L86.9667 112.049L7.02762 109.84L3.63206 109.746L6.43517 111.665L72.3962 156.813L6.43499 201.983L3.63346 203.902L7.02762 203.808L86.9667 201.599L60.1617 276.89L59.0233 280.088L61.7135 278.018L125.076 229.274L147.677 305.931L148.636 309.184L149.596 305.931L172.197 229.274L235.559 278.018L238.249 280.088L237.111 276.89L210.306 201.599L290.245 203.808L293.639 203.902L290.838 201.983L224.876 156.813L290.838 111.665Z"/></svg>