<svg width="75" height="158" viewBox="0 0 75 158" fill="none" xmlns="http://www.w3.org/2000/svg">
<path d="M142.707 57.8872L145.51 55.9686L142.114 56.0624L104.741 57.095L117.273 21.8948L118.411 18.6972L115.721 20.7668L86.097 43.5562L75.5302 7.7172L74.571 4.46399L73.6118 7.7172L63.045 43.5562L33.4213 20.7668L30.7311 18.6972L31.8694 21.8948L44.4013 57.095L7.02762 56.0624L3.63206 55.9686L6.43517 57.8872L37.2732 78.9949L6.43499 100.113L3.63346 102.031L7.02762 101.938L44.4013 100.905L31.8694 136.105L30.7311 139.303L33.4213 137.233L63.045 114.444L73.6118 150.283L74.571 153.536L75.5302 150.283L86.097 114.444L115.721 137.233L118.411 139.303L117.273 136.105L104.741 100.905L142.114 101.938L145.509 102.031L142.707 100.113L111.869 78.9949L142.707 57.8872Z" fill="#F7532B" stroke="black" stroke-width="2"/>
</svg>
