<svg xmlns="http://www.w3.org/2000/svg" width="64" height="82" fill="none" viewBox="0 0 64 82"><path fill="#000" d="M62.2773 53.4787C62.2773 50.0506 59.4347 47.2224 55.9892 47.2224C55.0417 47.2224 54.1804 47.3938 53.319 47.8223C51.7685 45.3369 48.1507 44.1371 45.3082 45.4226C43.93 43.1943 40.9152 41.9945 38.245 42.6801V38.6521H49.2705C57.4536 38.6521 64 32.0529 64 23.9968C64 15.3408 56.5061 8.22749 47.4616 9.42733C44.1023 3.51382 37.9004 0 31.0956 0C22.7402 0 15.4186 5.31359 12.7483 13.1126C5.68506 13.1126 0 18.8547 0 25.8823C0 32.91 5.7712 38.6521 12.8345 38.6521H25.9273V55.2785L23.86 53.2216C21.7066 51.079 18.3472 50.8219 15.8493 52.4502C14.3849 53.4787 13.3513 55.0213 13.0929 56.8211C12.8345 58.6209 13.3513 60.3349 14.4711 61.7062L25.4105 74.8187C28.856 79.0182 33.9381 81.4179 39.4509 81.4179H46.2557C50.5626 81.4179 54.611 79.7038 57.712 76.7042C60.8129 73.6189 62.4495 69.5909 62.4495 65.3057L62.2773 53.4787ZM12.7483 34.7097C7.83849 34.7097 3.87618 30.7674 3.87618 25.8823C3.87618 20.9972 7.83849 17.0549 12.7483 17.0549C13.0067 17.0549 13.2651 17.1406 13.8681 17.1406C14.8156 17.2263 15.7631 16.6264 16.0215 15.6837C17.7443 8.74171 23.86 3.94234 31.0094 3.94234C36.8668 3.94234 42.1211 7.19905 44.7914 12.4269C45.2221 13.1983 46.0835 13.6268 46.9448 13.4554C47.8062 13.284 48.5814 13.1983 49.2705 13.1983C55.214 13.1983 60.1238 17.9976 60.1238 23.9968C60.1238 29.9104 55.3001 34.7954 49.2705 34.7954H38.4172V30.7674C38.4172 29.0533 37.7281 27.5107 36.6083 26.3108C35.4024 25.0253 33.7658 24.4254 32.1292 24.4254C28.6837 24.4254 25.8412 27.2536 25.8412 30.6817V34.7097H12.7483ZM54.7833 73.9617C52.4576 76.2757 49.3567 77.5612 46.0835 77.5612H39.2786C35.0579 77.5612 31.0094 75.6758 28.3392 72.4191L17.4859 59.2208C17.0552 58.7066 16.8829 58.0209 16.969 57.3353C17.0552 56.6497 17.4859 56.0498 18.0027 55.707C18.4334 55.4499 18.8641 55.2785 19.3809 55.2785C19.9839 55.2785 20.5868 55.5356 21.1036 55.9641L25.4966 60.3349C26.1857 61.0206 27.3055 61.2777 28.253 60.8491C29.2005 60.4206 29.8035 59.5636 29.8035 58.4495V30.6817C29.8035 29.3961 30.8371 28.3677 32.1292 28.3677C32.7322 28.3677 33.3351 28.6248 33.7658 29.0533C34.1965 29.4818 34.4549 30.0818 34.4549 30.6817V46.451C34.4549 47.3081 35.0579 48.0794 35.8331 48.3365C36.6945 48.5936 37.5559 48.2508 38.0727 47.4795C38.5034 46.7938 39.2786 46.3653 40.0538 46.3653C41.3459 46.3653 42.3795 47.3938 42.3795 48.8507C42.3795 49.7078 42.9825 50.4791 43.7577 50.7362C44.6191 50.9933 45.4805 50.6505 45.9973 49.8792C46.428 49.1935 47.2032 48.765 47.9785 48.765C49.2705 48.765 50.3042 49.7935 50.3042 51.2504C50.3042 52.1074 50.9071 52.8788 51.7685 53.1359C52.6299 53.393 53.4913 53.0502 54.0081 52.2788C54.4388 51.5932 55.214 51.1647 55.9892 51.1647C57.2813 51.1647 58.3149 52.1931 58.3149 53.4787V65.3057C58.4011 68.5624 57.109 71.6477 54.7833 73.9617Z"/></svg>