<svg xmlns="http://www.w3.org/2000/svg" width="211" height="208" fill="none" viewBox="0 0 211 208"><path fill="#F7532B" stroke="#000" stroke-width="3" d="M132.252 201.439L133.177 201.71L133.808 200.982L152.357 179.569L179.605 171.597L180.531 171.326L180.668 170.37L184.701 142.323L203.229 120.91L203.86 120.181L203.459 119.304L191.678 93.5346L195.71 65.4994L195.847 64.5452L195.036 64.024L171.189 48.699L159.418 22.9288L159.018 22.052H158.054H129.716L105.858 6.73767L105.047 6.21746L104.237 6.73784L80.3897 22.052L52.0521 22.052H51.0882L50.6877 22.9288L38.917 48.6987L15.0481 64.0236L14.2362 64.545L14.3739 65.5L18.4173 93.5348L6.63581 119.304L6.23512 120.181L6.86568 120.91L25.3929 142.322L29.3599 170.367L29.4954 171.325L30.4239 171.597L57.6708 179.569L76.198 200.981L76.8288 201.711L77.7541 201.439L105.003 193.455L132.252 201.439ZM105.425 180.487L105.003 180.363L104.581 180.487L81.1327 187.372L65.1061 168.887L64.8177 168.554L64.3953 168.43L40.9035 161.534L37.4213 137.313L37.3586 136.877L37.0696 136.543L21.0328 118.059L31.2023 95.7964L31.3853 95.3957L31.3226 94.9596L27.8405 70.7499L48.4354 57.522L48.8064 57.2838L48.9894 56.8826L59.1483 34.6199H83.6413H84.0815L84.4519 34.382L105.047 21.1539L125.62 34.3817L125.991 34.6199H126.432H150.926L161.117 56.8843L161.3 57.2836L161.669 57.5213L182.221 70.749L178.739 94.9596L178.676 95.3957L178.859 95.7964L189.029 118.059L172.992 136.543L172.703 136.877L172.64 137.313L169.158 161.534L145.667 168.43L145.244 168.554L144.956 168.886L128.918 187.372L105.425 180.487Z"/><path fill="#F7532B" stroke="#000" stroke-width="3" d="M137.572 104.11C137.572 122.06 123.011 136.612 105.048 136.612C87.0841 136.612 72.5234 122.06 72.5234 104.11C72.5234 86.1609 87.0841 71.6083 105.048 71.6083C123.011 71.6083 137.572 86.1609 137.572 104.11Z"/></svg>