<svg xmlns="http://www.w3.org/2000/svg" width="64" height="68" fill="none" viewBox="0 0 64 68"><path fill="#000" d="M36.047 3.57343C31.9436 -0.820629 25.6556 -1.21762 22.004 2.68944L19.6926 5.16634L17.3825 2.68944C13.7308 -1.21639 7.44285 -0.820629 3.33703 3.57343C-0.765092 7.96502 -1.13801 14.6942 2.51119 18.6013L13.0847 29.9131L19.6926 36.9875L26.2932 29.9255C26.2932 29.923 26.2981 29.923 26.3006 29.9156L36.8728 18.6025C40.5232 14.6967 40.1515 7.96626 36.047 3.57343Z"/><path fill="#000" d="M62.7692 22.258C62.7692 20.8969 61.6677 19.7922 60.3077 19.7922C58.9477 19.7922 57.8462 20.8969 57.8462 22.258C57.8462 23.6192 58.9477 24.7238 60.3077 24.7238C61.6677 24.7238 62.7692 23.6192 62.7692 22.258Z"/><path fill="#000" d="M57.8462 12.3948C57.8462 11.0336 56.7447 9.92896 55.3847 9.92896C54.0247 9.92896 52.9232 11.0336 52.9232 12.3948C52.9232 13.7559 54.0247 14.8606 55.3847 14.8606C56.7447 14.8606 57.8462 13.7559 57.8462 12.3948Z"/><path fill="#000" d="M49.2309 4.93211C49.2309 3.57099 48.1294 2.46631 46.7694 2.46631C45.4094 2.46631 44.3079 3.57099 44.3079 4.93211C44.3079 6.29323 45.4094 7.39791 46.7694 7.39791C48.1294 7.39791 49.2309 6.29323 49.2309 4.93211Z"/><path fill="#000" d="M64 29.5901H59.077V39.4533H50.4617V44.4503V51.8477C50.4617 52.9536 49.1041 54.2481 48.0001 54.2481H34.4618C33.103 54.2481 32.0002 55.3528 32.0002 56.7139C32.0002 58.075 33.103 59.1797 34.4618 59.1797H38.154V67.81H43.0771V59.1797H48.0001C51.7958 59.1797 55.3847 55.6499 55.3847 51.8477V44.3849H64V29.5901Z"/><path fill="#000" d="M16.0003 49.3164H11.0773V67.8099H16.0003V49.3164Z"/><path fill="#000" d="M62.7692 22.1926C62.7692 20.8315 61.6677 19.7268 60.3077 19.7268C58.9477 19.7268 57.8462 20.8315 57.8462 22.1926C57.8462 23.5537 58.9477 24.6584 60.3077 24.6584C61.6677 24.6584 62.7692 23.5537 62.7692 22.1926Z"/><path fill="#000" d="M7.38502 33.2888C7.38502 31.9277 6.28349 30.823 4.9235 30.823C3.56351 30.823 2.46198 31.9277 2.46198 33.2888C2.46198 34.6499 3.56351 35.7546 4.9235 35.7546C6.28349 35.7546 7.38502 34.6499 7.38502 33.2888Z"/><path fill="#000" d="M11.0773 43.1521C11.0773 41.791 9.97575 40.6863 8.61576 40.6863C7.25577 40.6863 6.15424 41.791 6.15424 43.1521C6.15424 44.5132 7.25577 45.6179 8.61576 45.6179C9.97575 45.6179 11.0773 44.5132 11.0773 43.1521Z"/><path fill="#000" d="M57.8462 12.3296C57.8462 10.9684 56.7447 9.86377 55.3847 9.86377C54.0247 9.86377 52.9232 10.9684 52.9232 12.3296C52.9232 13.6907 54.0247 14.7954 55.3847 14.7954C56.7447 14.7954 57.8462 13.6907 57.8462 12.3296Z"/><path fill="#000" d="M45.5386 29.5901C42.8211 29.5901 40.6155 31.7994 40.6155 34.5217H50.4616C50.4616 31.7994 48.2561 29.5901 45.5386 29.5901Z"/></svg>