<svg width="136" height="144" viewBox="0 0 136 144" fill="none" xmlns="http://www.w3.org/2000/svg">
<path d="M129.383 53.0501L132.186 51.1315L128.791 51.2253L95.2454 52.1521L106.494 20.5579L107.632 17.3604L104.942 19.4299L78.3526 39.8848L68.8683 7.7172L67.9091 4.46399L66.9499 7.7172L57.4656 39.8848L30.8765 19.4299L28.1863 17.3604L29.3246 20.5579L40.5727 52.1521L7.02762 51.2253L3.63206 51.1315L6.43517 53.0501L34.114 71.9955L6.43499 90.95L3.63346 92.8685L7.02762 92.7747L40.5727 91.8478L29.3246 123.442L28.1863 126.64L30.8765 124.57L57.4656 104.115L66.9499 136.283L67.9091 139.536L68.8683 136.283L78.3526 104.115L104.942 124.57L107.632 126.64L106.494 123.442L95.2454 91.8478L128.791 92.7747L132.185 92.8685L129.383 90.95L101.704 71.9955L129.383 53.0501Z" fill="#3570F5" stroke="#161616" stroke-width="2"/>
</svg>
