<svg width="64" height="64" viewBox="0 0 64 64" fill="none" xmlns="http://www.w3.org/2000/svg">
<path d="M45.2499 38.4919L57.306 50.5481L50.5481 57.306L38.4919 45.2499L36.7848 43.5427V45.957V63H27.2152V45.957V43.5427L25.5081 45.2499L13.4519 57.306L6.69398 50.5481L18.7502 38.4919L20.4573 36.7848H18.043H1V27.2152H18.043H20.4573L18.7502 25.5081L6.69398 13.4519L13.4519 6.69398L25.5081 18.7502L27.2152 20.4573V18.043V1H36.7848V18.043V20.4573L38.4919 18.7502L50.5481 6.69398L57.306 13.4519L45.2499 25.5081L43.5427 27.2152H45.957H63V36.7848H45.957H43.5427L45.2499 38.4919Z" fill="#FCC200" stroke="#161616" stroke-width="2"/>
</svg>
