<svg xmlns="http://www.w3.org/2000/svg" width="186" height="186" fill="none" viewBox="0 0 186 186"><path fill="#F7532B" d="M183.87 2.12976H2.12977V183.87H183.87V2.12976Z"/><path fill="#161616" d="M186 186H0V0H186V186ZM4.25954 181.74H181.74V4.25954H4.25954V181.74Z"/><path fill="#009C71" d="M2.12977 93C2.12977 42.8794 42.8794 2.12976 93 2.12976H129.348V25.1313H183.87V93H2.12977Z"/><path fill="#161616" d="M186 95.1298H0V93C0 41.7435 41.7435 0 93 0H131.478V23.0015H186V95.1298ZM4.25954 90.8702H181.74V27.2611H127.218V4.25954H93C44.7252 4.25954 5.39542 42.8794 4.25954 90.8702Z"/><path fill="#161616" d="M186 186H90.8702V90.8702H186V186ZM95.1298 181.74H181.74V95.1298H95.1298V181.74Z"/><path fill="#3570F5" d="M138.435 183.87C163.528 183.87 183.87 163.528 183.87 138.435C183.87 113.342 163.528 93 138.435 93C113.342 93 93 113.342 93 138.435C93 163.528 113.342 183.87 138.435 183.87Z"/><path fill="#161616" d="M138.435 186C112.168 186 90.8702 164.702 90.8702 138.435C90.8702 112.168 112.168 90.8702 138.435 90.8702C164.702 90.8702 186 112.168 186 138.435C186 164.702 164.702 186 138.435 186ZM138.435 95.1298C114.582 95.1298 95.1298 114.582 95.1298 138.435C95.1298 162.289 114.582 181.74 138.435 181.74C162.289 181.74 181.74 162.289 181.74 138.435C181.74 114.582 162.289 95.1298 138.435 95.1298Z"/><path fill="#009C71" d="M155.473 121.397H121.397V155.473H155.473V121.397Z"/><path fill="#161616" d="M157.603 157.603H119.267V119.267H157.603V157.603ZM123.527 153.344H153.344V123.527H123.527V153.344Z"/><path fill="#6D4E99" d="M84.4809 183.87H2.12977V101.519L12.7786 144.115L43.3053 112.594L31.2366 154.763L73.4061 142.695L41.8855 173.221L84.4809 183.87Z"/><path fill="#161616" d="M101.803 186H0V84.197L13.9145 139.855L47.7069 104.927L34.3603 151.64L81.0733 138.293L46.145 172.086L101.803 186ZM4.25954 181.741H67.1588L37.626 174.357L65.7389 147.096L27.971 157.887L38.7618 120.119L11.6427 148.374L4.25954 118.841V181.741Z"/><path fill="#161616" d="M95.1298 186H0V90.8702H95.1298V186ZM4.25954 181.74H90.8702V95.1298H4.25954V181.74Z"/><path fill="#F7532B" d="M93 48C84.1702 48 77 55.1702 77 64C77 55.1702 69.8298 48 61 48C69.8298 48 77 40.8298 77 32C77 40.8298 84.1702 48 93 48Z"/><path fill="#161616" fill-rule="evenodd" d="M61 50.0186V45.9814C68.7149 45.9814 74.9814 39.7149 74.9814 32H79.0186C79.0186 39.7149 85.2851 45.9814 93 45.9814V50.0186C85.2851 50.0186 79.0186 56.2851 79.0186 64H74.9814C74.9814 56.2851 68.7149 50.0186 61 50.0186ZM77 55.7105C78.7127 52.4143 81.4143 49.7127 84.7105 48C81.4143 46.2873 78.7127 43.5857 77 40.2895C75.2873 43.5857 72.5857 46.2873 69.2895 48C72.5857 49.7127 75.2873 52.4143 77 55.7105Z" clip-rule="evenodd"/></svg>