<svg xmlns="http://www.w3.org/2000/svg" width="64" height="64" fill="none" viewBox="0 0 64 64"><path fill="#000" d="M42.7116 19.374C38.5347 16.0783 33.1453 14.9348 27.8905 16.1455C21.76 17.558 16.8421 22.4008 15.36 28.5215C13.6758 35.3148 16.0337 42.1754 21.5579 46.4128C21.9621 46.7491 22.2316 47.3544 22.2316 48.027V57.2417C22.2316 59.125 23.7811 60.672 25.6674 60.672H27.8232C28.4295 62.4881 30.0463 63.766 32.0674 63.766C34.0884 63.766 35.7053 62.4208 36.3116 60.672H38.4674C40.3537 60.672 41.9032 59.125 41.9032 57.2417V47.9598C41.9032 47.3544 42.1053 46.8164 42.5095 46.4801C46.8211 43.1843 49.3137 38.207 49.3137 32.8934C49.2463 27.5798 46.8211 22.6698 42.7116 19.374ZM26.3411 56.5019V52.6008H37.659V56.5019H26.3411ZM39.9495 43.1843C38.5347 44.2605 37.659 46.0092 37.659 47.9598V48.4979H26.3411V48.027C26.3411 46.0765 25.4653 44.2605 24.0505 43.117C19.8737 39.8885 18.0548 34.7094 19.3348 29.4631C20.48 24.8894 24.1853 21.2573 28.8337 20.1812C32.8758 19.2395 36.9853 20.1139 40.1516 22.6025C43.3179 25.0912 45.1368 28.7905 45.1368 32.8261C45.0695 36.929 43.1832 40.6956 39.9495 43.1843Z"/><path fill="#000" d="M32 11.5045C33.1452 11.5045 34.0884 10.5628 34.0884 9.41941V2.89514C34.0884 1.75171 33.1452 0.810059 32 0.810059C30.8547 0.810059 29.9116 1.75171 29.9116 2.89514V9.41941C29.9116 10.5628 30.8547 11.5045 32 11.5045Z"/><path fill="#000" d="M16.9769 17.6924C17.7853 16.8852 17.7853 15.54 16.9769 14.7329L12.3285 10.0919C11.52 9.28479 10.1727 9.28479 9.36425 10.0919C8.55583 10.899 8.55583 12.2443 9.36425 13.0514L14.0127 17.6924C14.4169 18.0959 14.9558 18.2977 15.4948 18.2977C16.0337 18.2977 16.5727 18.0959 16.9769 17.6924Z"/><path fill="#000" d="M8.62315 30.6736H2.08842C0.943157 30.6736 0 31.6152 0 32.7587C0 33.9021 0.943157 34.8437 2.08842 34.8437H8.62315C9.76842 34.8437 10.7116 33.9021 10.7116 32.7587C10.7116 31.6152 9.76842 30.6736 8.62315 30.6736Z"/><path fill="#000" d="M61.9116 30.6736H55.3769C54.2316 30.6736 53.2885 31.6152 53.2885 32.7587C53.2885 33.9021 54.2316 34.8437 55.3769 34.8437H61.9116C63.0569 34.8437 64 33.9021 64 32.7587C64 31.6152 63.0569 30.6736 61.9116 30.6736Z"/><path fill="#000" d="M54.6358 10.1593C53.8273 9.35217 52.48 9.35217 51.6715 10.1593L47.0231 14.8003C46.2147 15.6074 46.2147 16.9526 47.0231 17.7598C47.4273 18.1633 47.9663 18.3651 48.5052 18.3651C49.0442 18.3651 49.5831 18.1633 49.9873 17.7598L54.6358 13.1188C55.4442 12.2444 55.4442 10.9664 54.6358 10.1593Z"/><path fill="#000" d="M35.2337 28.4542L29.9116 34.1714L27.8232 31.9518C27.0147 31.1447 25.7347 31.0774 24.859 31.8173C24.0505 32.6244 23.9832 33.9024 24.7242 34.7767L28.3621 38.6779C28.7663 39.0814 29.3053 39.3505 29.9116 39.3505C30.5179 39.3505 31.0568 39.0814 31.4611 38.6779L38.3326 31.3465C39.1411 30.5393 39.0737 29.1941 38.1979 28.387C37.3221 27.5799 35.9747 27.5799 35.2337 28.4542Z"/></svg>