<svg width="24" height="24" viewBox="0 0 24 24" fill="none" xmlns="http://www.w3.org/2000/svg">
<path d="M16.2 7.19975C15.1781 7.19625 14.1655 7.39428 13.2202 7.78252C12.2749 8.17076 11.4154 8.7416 10.6909 9.46235C9.96645 10.1831 9.3912 11.0396 8.99811 11.983C8.60501 12.9263 8.40177 13.9378 8.40002 14.9598V22.7998C8.40002 23.118 8.52645 23.4232 8.7515 23.6483C8.97654 23.8733 9.28176 23.9998 9.60002 23.9998H12.4C12.7183 23.9998 13.0235 23.8733 13.2486 23.6483C13.4736 23.4232 13.6 23.118 13.6 22.7998V14.9598C13.5998 14.5963 13.6761 14.2368 13.8241 13.9049C13.972 13.5729 14.1883 13.2758 14.4588 13.033C14.7292 12.7902 15.0479 12.6071 15.3938 12.4957C15.7398 12.3843 16.1054 12.3471 16.4667 12.3864C17.1147 12.468 17.7102 12.7846 18.1403 13.2762C18.5704 13.7677 18.8051 14.4 18.8 15.0531V22.7998C18.8 23.118 18.9265 23.4232 19.1515 23.6483C19.3765 23.8733 19.6818 23.9998 20 23.9998H22.8C23.1183 23.9998 23.4235 23.8733 23.6486 23.6483C23.8736 23.4232 24 23.118 24 22.7998V14.9598C23.9983 13.9378 23.795 12.9263 23.4019 11.983C23.0088 11.0396 22.4336 10.1831 21.7091 9.46235C20.9847 8.7416 20.1252 8.17076 19.1799 7.78252C18.2345 7.39428 17.222 7.19625 16.2 7.19975Z" fill="white"/>
<path d="M4.8 8.3999H1.2C0.537258 8.3999 0 8.93716 0 9.5999V22.7999C0 23.4626 0.537258 23.9999 1.2 23.9999H4.8C5.46274 23.9999 6 23.4626 6 22.7999V9.5999C6 8.93716 5.46274 8.3999 4.8 8.3999Z" fill="white"/>
<path d="M3 6C4.65685 6 6 4.65685 6 3C6 1.34315 4.65685 0 3 0C1.34315 0 0 1.34315 0 3C0 4.65685 1.34315 6 3 6Z" fill="white"/>
</svg>
