<svg width="390" height="245" viewBox="0 0 390 245" fill="none" xmlns="http://www.w3.org/2000/svg">
<path d="M350.541 245H370.989C371.406 245 372.241 245 372.658 245C383.508 244.172 391.437 233.412 389.768 222.652C389.351 219.341 388.516 216.444 388.099 213.133C387.264 210.236 386.43 207.34 385.595 204.443C378.918 182.095 366.816 161.816 350.541 145.262C342.195 136.571 332.179 129.122 321.746 122.914C332.179 116.706 341.777 109.257 350.541 100.566C366.816 84.0118 378.918 64.147 385.595 41.3851C386.43 38.4882 387.264 35.5912 388.099 32.6943C388.934 29.3834 389.351 26.4865 389.768 23.1757C391.437 11.5878 383.926 0.827703 372.658 0C372.241 0 371.406 0 370.989 0H20.4482C9.18083 0 0 9.10473 0 20.2787V224.721C0 235.895 9.18083 245 20.4482 245H350.541ZM341.777 40.9713C325.92 76.9763 289.614 102.221 247.465 102.221C205.317 102.221 168.593 76.9763 152.736 40.9713H341.777ZM41.3138 40.9713H94.7295C84.2967 64.5608 65.1005 83.598 41.3138 93.9443V40.9713ZM41.3138 204.443V151.47C65.1005 161.816 84.2967 180.853 94.7295 204.443H41.3138ZM123.524 171.748C117.682 162.23 110.587 153.125 103.076 145.262C94.7295 136.571 84.7141 129.122 74.2813 122.914C84.7141 116.706 94.3122 109.257 103.076 100.566C111.005 92.7027 118.099 83.598 123.524 74.0794C129.366 83.598 136.043 92.7027 143.972 100.566C152.736 109.257 162.334 116.706 172.767 123.328C162.334 129.535 152.736 137.399 143.972 146.09C136.461 153.125 129.366 161.816 123.524 171.748ZM152.736 204.443C168.593 168.438 204.9 143.193 247.048 143.193C289.196 143.193 325.502 168.438 341.36 204.443H152.736Z" fill="#009C71"/>
</svg>
