<svg xmlns="http://www.w3.org/2000/svg" width="185" height="24" fill="none" viewBox="0 0 185 24"><path fill="#009C71" d="M61.3921 13.4189C62.2504 14.1892 62.7 15.3243 62.7 16.8649C62.7 19.0135 61.9234 20.5541 60.4111 21.446C58.8988 22.3379 56.7325 22.7838 53.9939 22.7838H48.6395C48.149 22.7838 47.7403 22.3784 47.7403 21.8919L47.7812 3.0811C47.7812 2.59461 48.1899 2.18921 48.6804 2.18921H53.2173C58.9396 2.18921 61.8008 3.97299 61.8008 7.45948C61.8008 8.67569 61.4329 9.64867 60.6972 10.4189C59.9615 11.1892 59.0214 11.6757 57.9587 11.8784C59.3893 12.1622 60.5337 12.6892 61.3921 13.4189ZM57.3864 19.2162C58.163 18.7703 58.5309 17.9595 58.5309 16.7433C58.5309 15.5676 58.163 14.7162 57.4273 14.1892C56.6916 13.6622 55.7106 13.4189 54.4436 13.4189H51.705V19.8649H54.0348C55.5063 19.8649 56.6098 19.6216 57.3864 19.2162ZM51.7459 5.06759V10.6622H54.1983C55.3019 10.6622 56.1602 10.4189 56.8142 9.93245C57.4682 9.44597 57.7952 8.71624 57.7952 7.7838C57.7952 6.77029 57.4682 6.0811 56.8142 5.6757C56.1602 5.27029 55.0975 5.06759 53.667 5.06759H51.7459Z"/><path fill="#009C71" d="M66.1334 22.2162C65.4386 21.5271 65.1116 20.5135 65.1116 19.2162L65.1524 1.54057C65.1524 1.09462 65.5203 0.689215 65.9699 0.648674L68.0136 0.445972C68.5449 0.405431 69.0354 0.810836 69.0354 1.33786L68.9946 19.0946C68.9946 19.8244 69.2807 20.1892 69.8938 20.1892C70.1799 20.1892 70.5069 20.1487 70.793 20.0271L71.6105 22.7027C70.793 23.0676 69.9755 23.2298 69.0354 23.2298C67.8092 23.2703 66.8283 22.946 66.1334 22.2162Z"/><path fill="#009C71" d="M85.6301 20.0676C85.8344 20.3514 86.1205 20.5946 86.5293 20.7568L85.957 22.5406C85.8344 22.9865 85.3848 23.2297 84.9352 23.1487C84.4039 23.027 83.9134 22.8649 83.5046 22.6216C82.9324 22.2568 82.4828 21.7297 82.1967 20.9595C81.6653 21.7703 80.9705 22.3379 80.153 22.7433C79.3355 23.1487 78.4363 23.3108 77.4145 23.3108C75.8204 23.3108 74.5942 22.8649 73.6541 21.973C72.714 21.0811 72.2644 19.9054 72.2644 18.446C72.2644 16.7433 72.9184 15.446 74.1446 14.5135C75.4117 13.6216 77.1692 13.1757 79.499 13.1757H81.5018V12.2838C81.5018 11.2703 81.2566 10.5406 80.807 10.1352C80.3165 9.72975 79.5808 9.52704 78.5589 9.52704C77.578 9.52704 76.4744 9.72975 75.1664 10.0946C74.7168 10.2162 74.1855 9.97299 74.0628 9.52704L73.7358 8.59461C73.5724 8.10812 73.8585 7.5811 74.3081 7.41893C75.9839 6.89191 77.6188 6.60812 79.2129 6.60812C83.3003 6.60812 85.3031 8.43245 85.3031 12.0406V18.6487C85.3439 19.3379 85.4257 19.7838 85.6301 20.0676ZM81.5427 18.6081V15.4054H79.9486C77.4553 15.4054 76.2291 16.2973 76.2291 18.1216C76.2291 18.8919 76.4335 19.4595 76.8014 19.8649C77.1692 20.2703 77.7415 20.5135 78.4772 20.5135C79.7851 20.5541 80.807 19.9054 81.5427 18.6081Z"/><path fill="#009C71" d="M98.1374 7.13516C98.7096 7.33786 99.241 7.62164 99.7723 7.98651C100.181 8.27029 100.263 8.83786 99.9767 9.24326L99.3227 10.1352C99.0366 10.5 98.5461 10.6216 98.1374 10.3784C97.8104 10.2162 97.5243 10.0541 97.2381 9.93245C96.7477 9.77029 96.1754 9.64867 95.6032 9.64867C93.2325 9.64867 92.0063 11.4325 92.0063 15.0406C92.0063 16.8649 92.2925 18.2027 92.9464 19.0135C93.5595 19.8243 94.4587 20.2298 95.6032 20.2298C96.1754 20.2298 96.6659 20.1487 97.1564 19.946C97.4425 19.8243 97.7695 19.7027 98.0965 19.5C98.5052 19.2973 99.0366 19.3784 99.2818 19.7838L99.9767 20.7973C100.263 21.2027 100.181 21.7703 99.7314 22.0541C98.4235 22.9054 96.952 23.3108 95.3171 23.3108C93.8048 23.3108 92.4559 22.9865 91.3524 22.2973C90.2488 21.6487 89.3904 20.6757 88.7773 19.4595C88.1642 18.2433 87.8781 16.7838 87.8781 15.1216C87.8781 13.4595 88.2051 11.9595 88.7773 10.7027C89.3904 9.40543 90.2488 8.43245 91.3524 7.74326C92.4968 7.05407 93.8048 6.68921 95.2762 6.68921C96.3798 6.68921 97.3199 6.85137 98.1374 7.13516Z"/><path fill="#009C71" d="M105.249 22.946H103.206C102.715 22.946 102.306 22.5406 102.306 22.0541L102.347 1.66218C102.347 1.21623 102.715 0.810827 103.165 0.770287L105.209 0.567584C105.74 0.527044 106.23 0.932449 106.23 1.45948L106.189 22.0541C106.189 22.5406 105.781 22.946 105.249 22.946ZM110.44 14.1081L115.304 21.5676C115.713 22.1757 115.263 22.946 114.528 22.946H112.28C111.953 22.946 111.667 22.7838 111.503 22.5406L106.312 14.3514L111.38 7.5811C111.544 7.33786 111.83 7.21623 112.116 7.21623H113.874C114.609 7.21623 115.059 8.06758 114.609 8.67569L110.44 14.1081Z"/><path fill="#009C71" d="M118.492 22.3784C117.798 21.6892 117.471 20.6757 117.471 19.3784L117.511 1.70274C117.511 1.25679 117.879 0.851385 118.329 0.810845L120.373 0.608142C120.904 0.567602 121.394 0.973007 121.394 1.50003L121.354 19.2568C121.354 19.9865 121.64 20.3514 122.253 20.3514C122.539 20.3514 122.866 20.3108 123.152 20.1892L123.969 22.8649C123.152 23.2298 122.334 23.3919 121.394 23.3919C120.127 23.4325 119.187 23.0676 118.492 22.3784Z"/><path fill="#009C71" d="M138.275 16.3379L128.302 16.2973C128.425 17.8379 128.833 18.9325 129.528 19.5811C130.182 20.2298 131.081 20.5541 132.226 20.5541C132.921 20.5541 133.575 20.4325 134.229 20.2298C134.637 20.0676 135.046 19.8649 135.496 19.6216C135.905 19.3784 136.436 19.5 136.681 19.8649L137.253 20.6352C137.539 21.0406 137.458 21.6487 137.049 21.9325C135.496 22.9865 133.779 23.473 131.899 23.473C129.487 23.473 127.607 22.7433 126.299 21.2433C124.991 19.7838 124.337 17.7568 124.337 15.2027C124.337 13.5811 124.623 12.1622 125.196 10.8649C125.768 9.56759 126.585 8.59462 127.648 7.86489C128.711 7.13516 129.978 6.77029 131.449 6.77029C133.656 6.77029 135.414 7.50002 136.599 8.8784C137.826 10.2973 138.439 12.2433 138.398 14.7568C138.357 14.9595 138.357 15.4865 138.275 16.3379ZM134.556 13.6622C134.556 10.9054 133.534 9.52705 131.49 9.52705C130.55 9.52705 129.814 9.85138 129.283 10.5406C128.752 11.2298 128.425 12.3243 128.343 13.8243H134.597L134.556 13.6622Z"/><path fill="#009C71" d="M153.112 20.2703C153.194 20.3919 153.317 20.5541 153.48 20.6352C153.807 20.8784 153.93 21.2838 153.807 21.6487L153.439 22.7433C153.317 23.1892 152.867 23.4325 152.417 23.3514C151.886 23.2298 151.396 23.0676 150.987 22.8244C150.415 22.4595 149.965 21.9325 149.679 21.1622C149.148 21.973 148.453 22.5406 147.635 22.946C146.818 23.3109 145.919 23.5136 144.897 23.5136C143.303 23.5136 142.076 23.0676 141.136 22.1757C140.196 21.2838 139.747 20.1082 139.747 18.6487C139.747 16.946 140.401 15.6487 141.627 14.7163C142.894 13.8244 144.651 13.3784 146.981 13.3784H148.984V12.4865C148.984 11.473 148.739 10.7433 148.289 10.3379C147.799 9.93247 147.063 9.72977 146.041 9.72977C145.06 9.72977 143.957 9.93247 142.649 10.2973C142.199 10.419 141.668 10.1757 141.545 9.72977L141.218 8.79734C141.055 8.31085 141.341 7.78383 141.79 7.62166C143.466 7.09464 145.101 6.81085 146.695 6.81085C150.783 6.81085 152.785 8.63518 152.785 12.2433V18.8514C152.826 19.5 152.908 19.946 153.112 20.2703ZM149.066 18.8109V15.6082H147.472C144.978 15.6082 143.752 16.5 143.752 18.3244C143.752 19.0946 143.957 19.6622 144.324 20.0676C144.692 20.473 145.265 20.7163 146 20.7163C147.267 20.7163 148.289 20.0676 149.066 18.8109Z"/><path fill="#009C71" d="M169.83 1.82435L169.789 22.2162C169.789 22.7027 169.38 23.1081 168.889 23.1081H167.214C166.764 23.1081 166.355 22.7838 166.314 22.3379L166.151 21.1216C165.66 21.8919 165.006 22.4595 164.271 22.9054C163.494 23.3514 162.636 23.5541 161.614 23.5541C159.652 23.5541 158.181 22.7838 157.159 21.3243C156.137 19.8243 155.606 17.7973 155.606 15.2433C155.606 13.6216 155.892 12.1622 156.382 10.9054C156.914 9.64867 157.649 8.6757 158.63 7.94597C159.611 7.25678 160.756 6.89192 162.064 6.89192C163.576 6.89192 164.884 7.45948 165.987 8.59462V1.62165C165.987 1.09462 166.478 0.648672 167.009 0.729753L169.053 0.972997C169.462 0.972997 169.83 1.3784 169.83 1.82435ZM164.434 20.1487C164.966 19.8243 165.456 19.2973 165.906 18.6081L165.947 11.3919C165.497 10.8243 165.047 10.4189 164.557 10.1352C164.066 9.85138 163.535 9.72975 162.922 9.72975C161.859 9.72975 161.042 10.1757 160.47 11.0676C159.856 11.9595 159.57 13.3379 159.57 15.1622C159.57 17.1081 159.816 18.5271 160.347 19.3379C160.878 20.1892 161.614 20.5946 162.636 20.5946C163.331 20.6352 163.944 20.473 164.434 20.1487Z"/><path fill="#009C71" d="M183.686 9.56762L183.154 10.3784C182.909 10.7838 182.378 10.9055 181.969 10.6622C180.865 10.0947 179.762 9.77033 178.699 9.77033C177.923 9.77033 177.35 9.89195 176.942 10.2163C176.533 10.5001 176.328 10.9055 176.288 11.3514C176.288 11.7163 176.369 12.0001 176.574 12.2433C176.737 12.4865 177.064 12.6892 177.555 12.9325C178.045 13.1352 178.74 13.3784 179.639 13.6217C181.356 14.0676 182.623 14.6757 183.481 15.446C184.299 16.2163 184.708 17.2703 184.708 18.6082C184.708 20.1892 184.054 21.4055 182.786 22.2974C181.519 23.1892 179.925 23.6352 178.004 23.5947C176.696 23.5947 175.511 23.3919 174.448 22.9865C173.713 22.7028 173.059 22.3784 172.445 21.973C171.996 21.6487 171.955 21.0406 172.323 20.6352L173.059 19.7838C173.345 19.4595 173.835 19.3784 174.244 19.6217C175.429 20.3514 176.655 20.7568 177.923 20.7568C178.781 20.7568 179.476 20.5947 179.966 20.2703C180.498 19.946 180.743 19.4595 180.743 18.8514C180.743 18.4055 180.661 18.0406 180.457 17.7568C180.252 17.473 179.925 17.2298 179.435 17.0271C178.944 16.8244 178.168 16.5811 177.146 16.2568C175.511 15.8109 174.326 15.2028 173.59 14.4325C172.813 13.6622 172.445 12.6487 172.445 11.473C172.445 10.5811 172.691 9.81087 173.222 9.12168C173.753 8.43249 174.448 7.86492 175.388 7.50006C176.328 7.09465 177.391 6.89195 178.577 6.93249C180.416 6.93249 182.01 7.37844 183.481 8.31087C183.89 8.55411 183.972 9.12168 183.686 9.56762Z"/><path fill="#009C71" d="M34.3338 24H36.3366C36.3775 24 36.4592 24 36.5001 24C37.5628 23.9189 38.3394 22.8649 38.1759 21.8108C38.135 21.4865 38.0533 21.2027 38.0124 20.8784C37.9306 20.5946 37.8489 20.3108 37.7672 20.027C37.1132 17.8378 35.9278 15.8514 34.3338 14.2297C33.5163 13.3784 32.5353 12.6486 31.5135 12.0405C32.5353 11.4324 33.4754 10.7027 34.3338 9.85135C35.9278 8.22973 37.1132 6.28378 37.7672 4.05405C37.8489 3.77027 37.9306 3.48649 38.0124 3.2027C38.0941 2.87838 38.135 2.59459 38.1759 2.27027C38.3394 1.13514 37.6037 0.0810811 36.5001 0C36.4592 0 36.3775 0 36.3366 0H2.0028C0.899218 0 0 0.891892 0 1.98649V22.0135C0 23.1081 0.899218 24 2.0028 24H34.3338ZM33.4754 4.01351C31.9222 7.54054 28.3662 10.0135 24.238 10.0135C20.1098 10.0135 16.5129 7.54054 14.9597 4.01351H33.4754ZM4.04648 4.01351H9.27829C8.25646 6.32432 6.37627 8.18919 4.04648 9.2027V4.01351ZM4.04648 20.027V14.8378C6.37627 15.8514 8.25646 17.7162 9.27829 20.027H4.04648ZM12.0986 16.8243C11.5263 15.8919 10.8315 15 10.0958 14.2297C9.27829 13.3784 8.29733 12.6486 7.27549 12.0405C8.29733 11.4324 9.23742 10.7027 10.0958 9.85135C10.8724 9.08108 11.5672 8.18919 12.0986 7.25676C12.6708 8.18919 13.3248 9.08108 14.1014 9.85135C14.9597 10.7027 15.8998 11.4324 16.9216 12.0811C15.8998 12.6892 14.9597 13.4595 14.1014 14.3108C13.3656 15 12.6708 15.8514 12.0986 16.8243ZM14.9597 20.027C16.5129 16.5 20.0689 14.027 24.1971 14.027C28.3254 14.027 31.8814 16.5 33.4346 20.027H14.9597Z"/></svg>