<svg width="185" height="25" viewBox="0 0 185 25" fill="none" xmlns="http://www.w3.org/2000/svg">
<path d="M61.3921 13.5305C62.2504 14.3072 62.7 15.4517 62.7 17.0051C62.7 19.1716 61.9234 20.7249 60.4111 21.6242C58.8988 22.5235 56.7325 22.9731 53.994 22.9731H48.6395C48.149 22.9731 47.7403 22.5644 47.7403 22.0738L47.7812 3.10682C47.7812 2.61629 48.1899 2.20752 48.6804 2.20752H53.2173C58.9396 2.20752 61.8008 4.00612 61.8008 7.52156C61.8008 8.74787 61.4329 9.72893 60.6972 10.5056C59.9615 11.2823 59.0214 11.7728 57.9587 11.9772C59.3893 12.2633 60.5337 12.7947 61.3921 13.5305ZM57.3865 19.3759C58.163 18.9263 58.5309 18.1088 58.5309 16.8824C58.5309 15.697 58.1631 14.8386 57.4273 14.3072C56.6916 13.7758 55.7106 13.5305 54.4436 13.5305H51.705V20.03H54.0348C55.5063 20.03 56.6099 19.7847 57.3865 19.3759ZM51.7459 5.1098V10.7509H54.1983C55.3019 10.7509 56.1602 10.5056 56.8142 10.0151C57.4682 9.52454 57.7952 8.78875 57.7952 7.84858C57.7952 6.82665 57.4682 6.13173 56.8142 5.72296C56.1602 5.31419 55.0975 5.1098 53.667 5.1098H51.7459Z" fill="white"/>
<path d="M66.1334 22.401C65.4386 21.7061 65.1116 20.6842 65.1116 19.3762L65.1524 1.55422C65.1524 1.10459 65.5203 0.695828 65.9699 0.654952L68.0136 0.450572C68.5449 0.409696 69.0354 0.818456 69.0354 1.34984L68.9946 19.2535C68.9946 19.9893 69.2807 20.3572 69.8938 20.3572C70.1799 20.3572 70.5069 20.3163 70.793 20.1937L71.6105 22.8915C70.793 23.2594 69.9755 23.4229 69.0354 23.4229C67.8092 23.4637 66.8283 23.1367 66.1334 22.401Z" fill="white"/>
<path d="M85.6301 20.234C85.8344 20.5202 86.1205 20.7655 86.5293 20.929L85.957 22.7277C85.8344 23.1774 85.3848 23.4226 84.9352 23.3409C84.4039 23.2182 83.9134 23.0547 83.5046 22.8094C82.9324 22.4415 82.4828 21.9101 82.1967 21.1334C81.6653 21.951 80.9705 22.5233 80.153 22.9321C79.3355 23.3409 78.4363 23.5044 77.4145 23.5044C75.8204 23.5044 74.5942 23.0547 73.6541 22.1554C72.714 21.256 72.2644 20.0705 72.2644 18.5989C72.2644 16.8819 72.9184 15.5738 74.1446 14.6336C75.4117 13.7342 77.1692 13.2846 79.499 13.2846H81.5018V12.3852C81.5018 11.3632 81.2566 10.6274 80.807 10.2186C80.3165 9.80982 79.5808 9.60542 78.5589 9.60542C77.578 9.60542 76.4744 9.80982 75.1664 10.1777C74.7168 10.3004 74.1855 10.0551 74.0628 9.60542L73.7358 8.6652C73.5724 8.17465 73.8585 7.64321 74.3081 7.4797C75.9839 6.94826 77.6188 6.66211 79.2129 6.66211C83.3003 6.66211 85.3031 8.50168 85.3031 12.1399V18.8033C85.3439 19.4982 85.4257 19.9479 85.6301 20.234ZM81.5427 18.7624V15.5329H79.9486C77.4553 15.5329 76.2291 16.4323 76.2291 18.2718C76.2291 19.0485 76.4335 19.6209 76.8014 20.0297C77.1692 20.4384 77.7415 20.6837 78.4772 20.6837C79.7851 20.7246 80.807 20.0705 81.5427 18.7624Z" fill="white"/>
<path d="M98.1374 7.19428C98.7096 7.39867 99.241 7.68481 99.7723 8.05271C100.181 8.33885 100.263 8.91113 99.9767 9.31991L99.3227 10.2192C99.0366 10.5871 98.5461 10.7097 98.1374 10.4645C97.8104 10.301 97.5243 10.1375 97.2381 10.0148C96.7477 9.85132 96.1754 9.72868 95.6032 9.72868C93.2325 9.72868 92.0063 11.5273 92.0063 15.1654C92.0063 17.0049 92.2925 18.3538 92.9464 19.1714C93.5595 19.9889 94.4587 20.3977 95.6032 20.3977C96.1754 20.3977 96.6659 20.316 97.1564 20.1116C97.4425 19.9889 97.7695 19.8663 98.0965 19.6619C98.5052 19.4575 99.0366 19.5393 99.2818 19.9481L99.9767 20.97C100.263 21.3788 100.181 21.9511 99.7314 22.2372C98.4235 23.0956 96.952 23.5044 95.3171 23.5044C93.8048 23.5044 92.4559 23.1774 91.3524 22.4825C90.2488 21.8284 89.3904 20.8474 88.7773 19.621C88.1642 18.3947 87.8781 16.9231 87.8781 15.2471C87.8781 13.5712 88.2051 12.0587 88.7773 10.7915C89.3904 9.48342 90.2488 8.50236 91.3524 7.80744C92.4968 7.11253 93.8048 6.74463 95.2762 6.74463C96.3798 6.74463 97.3199 6.90814 98.1374 7.19428Z" fill="white"/>
<path d="M105.249 23.1353H103.206C102.715 23.1353 102.307 22.7265 102.307 22.236L102.347 1.67578C102.347 1.22616 102.715 0.817405 103.165 0.77653L105.209 0.572154C105.74 0.531279 106.23 0.940031 106.23 1.47141L106.189 22.236C106.189 22.7265 105.781 23.1353 105.249 23.1353ZM110.44 14.2245L115.304 21.7455C115.713 22.3586 115.263 23.1353 114.528 23.1353H112.28C111.953 23.1353 111.667 22.9718 111.503 22.7265L106.312 14.4697L111.38 7.64356C111.544 7.39831 111.83 7.27568 112.116 7.27568H113.874C114.609 7.27568 115.059 8.13406 114.609 8.74719L110.44 14.2245Z" fill="white"/>
<path d="M118.492 22.5643C117.798 21.8694 117.471 20.8475 117.471 19.5394L117.511 1.71686C117.511 1.26721 117.879 0.858435 118.329 0.817557L120.373 0.61317C120.904 0.572293 121.394 0.981067 121.394 1.51247L121.354 19.4168C121.354 20.1526 121.64 20.5205 122.253 20.5205C122.539 20.5205 122.866 20.4796 123.152 20.357L123.969 23.0549C123.152 23.4228 122.335 23.5863 121.394 23.5863C120.127 23.6272 119.187 23.2593 118.492 22.5643Z" fill="white"/>
<path d="M138.275 16.4736L128.302 16.4327C128.425 17.9861 128.833 19.0897 129.528 19.7438C130.182 20.3978 131.081 20.7248 132.226 20.7248C132.921 20.7248 133.575 20.6022 134.229 20.3978C134.637 20.2343 135.046 20.0299 135.496 19.7847C135.905 19.5394 136.436 19.662 136.681 20.0299L137.253 20.8066C137.539 21.2154 137.458 21.8285 137.049 22.1146C135.496 23.1774 133.779 23.668 131.899 23.668C129.487 23.668 127.607 22.9322 126.299 21.4197C124.991 19.9482 124.337 17.9043 124.337 15.3291C124.337 13.694 124.623 12.2633 125.196 10.9552C125.768 9.64717 126.585 8.66612 127.648 7.93034C128.711 7.19455 129.978 6.82666 131.449 6.82666C133.657 6.82666 135.414 7.56244 136.599 8.95226C137.826 10.383 138.439 12.3451 138.398 14.8794C138.357 15.0838 138.357 15.6152 138.275 16.4736ZM134.556 13.7757C134.556 10.9961 133.534 9.60629 131.49 9.60629C130.55 9.60629 129.814 9.93331 129.283 10.6282C128.752 11.3231 128.425 12.4268 128.343 13.9393H134.597L134.556 13.7757Z" fill="white"/>
<path d="M153.112 20.4388C153.194 20.5615 153.317 20.725 153.48 20.8067C153.807 21.052 153.93 21.4608 153.807 21.8286L153.439 22.9323C153.317 23.382 152.867 23.6272 152.417 23.5455C151.886 23.4228 151.396 23.2593 150.987 23.0141C150.415 22.6462 149.965 22.1148 149.679 21.3381C149.148 22.1557 148.453 22.7279 147.635 23.1367C146.818 23.5046 145.919 23.709 144.897 23.709C143.303 23.709 142.076 23.2593 141.136 22.36C140.196 21.4608 139.747 20.2753 139.747 18.8037C139.747 17.0869 140.401 15.7789 141.627 14.8387C142.894 13.9394 144.651 13.4897 146.981 13.4897H148.984V12.5905C148.984 11.5685 148.739 10.8327 148.289 10.424C147.799 10.0152 147.063 9.81082 146.041 9.81082C145.06 9.81082 143.957 10.0152 142.649 10.3831C142.199 10.5057 141.668 10.2605 141.545 9.81082L141.218 8.87065C141.055 8.38012 141.341 7.84872 141.79 7.68521C143.466 7.15381 145.101 6.86768 146.695 6.86768C150.783 6.86768 152.785 8.70714 152.785 12.3452V19.0081C152.826 19.6622 152.908 20.1118 153.112 20.4388ZM149.066 18.9673V15.738H147.472C144.978 15.738 143.752 16.6373 143.752 18.4767C143.752 19.2534 143.957 19.8257 144.324 20.2344C144.692 20.6432 145.265 20.8885 146 20.8885C147.267 20.8885 148.289 20.2344 149.066 18.9673Z" fill="white"/>
<path d="M169.83 1.84036L169.789 22.4011C169.789 22.8916 169.38 23.3004 168.889 23.3004H167.214C166.764 23.3004 166.355 22.9734 166.314 22.5237L166.151 21.2974C165.66 22.0741 165.006 22.6463 164.271 23.096C163.494 23.5456 162.636 23.75 161.614 23.75C159.652 23.75 158.181 22.9734 157.159 21.5018C156.137 19.9894 155.606 17.9456 155.606 15.3704C155.606 13.7353 155.892 12.2638 156.382 10.9966C156.914 9.72946 157.649 8.74844 158.63 8.01266C159.611 7.31777 160.756 6.94988 162.064 6.94988C163.576 6.94988 164.884 7.52215 165.987 8.66668V1.63598C165.987 1.10458 166.478 0.654947 167.009 0.736699L169.053 0.981956C169.462 0.981956 169.83 1.39072 169.83 1.84036ZM164.434 20.3164C164.966 19.9894 165.456 19.458 165.906 18.7631L165.947 11.4871C165.497 10.9149 165.047 10.5061 164.557 10.22C164.066 9.93385 163.535 9.81122 162.922 9.81122C161.859 9.81122 161.042 10.2609 160.47 11.1601C159.856 12.0594 159.57 13.4492 159.57 15.2886C159.57 17.2507 159.816 18.6814 160.347 19.4989C160.878 20.3573 161.614 20.766 162.636 20.766C163.331 20.8069 163.944 20.6434 164.434 20.3164Z" fill="white"/>
<path d="M183.686 9.647L183.154 10.4645C182.909 10.8733 182.378 10.9959 181.969 10.7507C180.865 10.1784 179.762 9.85138 178.699 9.85138C177.923 9.85138 177.35 9.97401 176.942 10.301C176.533 10.5872 176.328 10.9959 176.288 11.4456C176.288 11.8135 176.369 12.0996 176.574 12.3449C176.737 12.5901 177.064 12.7945 177.555 13.0398C178.045 13.2442 178.74 13.4894 179.639 13.7347C181.356 14.1843 182.623 14.7975 183.481 15.5741C184.299 16.3508 184.708 17.4136 184.708 18.7625C184.708 20.3567 184.054 21.5831 182.787 22.4823C181.519 23.3816 179.925 23.8313 178.004 23.7904C176.696 23.7904 175.511 23.586 174.448 23.1773C173.713 22.8911 173.059 22.5641 172.446 22.1553C171.996 21.8283 171.955 21.2152 172.323 20.8064L173.059 19.948C173.345 19.621 173.835 19.5392 174.244 19.7845C175.429 20.5203 176.655 20.929 177.923 20.929C178.781 20.929 179.476 20.7655 179.966 20.4385C180.498 20.1115 180.743 19.621 180.743 19.0078C180.743 18.5582 180.661 18.1903 180.457 17.9041C180.252 17.618 179.925 17.3727 179.435 17.1683C178.944 16.964 178.168 16.7187 177.146 16.3917C175.511 15.942 174.326 15.3289 173.59 14.5522C172.813 13.7756 172.446 12.7536 172.446 11.5682C172.446 10.6689 172.691 9.89226 173.222 9.19735C173.753 8.50244 174.448 7.93017 175.388 7.56227C176.328 7.1535 177.391 6.94912 178.577 6.99C180.416 6.99 182.01 7.43964 183.481 8.37981C183.89 8.62507 183.972 9.19735 183.686 9.647Z" fill="white"/>
<path d="M34.3338 24.1987H36.3366C36.3775 24.1987 36.4592 24.1987 36.5001 24.1987C37.5628 24.117 38.3394 23.0542 38.1759 21.9914C38.135 21.6644 38.0533 21.3783 38.0124 21.0513C37.9306 20.7651 37.8489 20.479 37.7672 20.1929C37.1132 17.9855 35.9278 15.9826 34.3338 14.3476C33.5163 13.4892 32.5353 12.7534 31.5135 12.1402C32.5353 11.5271 33.4754 10.7913 34.3338 9.93292C35.9278 8.29788 37.1132 6.33582 37.7672 4.08762C37.8489 3.80149 37.9306 3.51536 38.0124 3.22922C38.0941 2.90221 38.135 2.61608 38.1759 2.28907C38.3394 1.14453 37.6037 0.0817525 36.5001 0C36.4592 0 36.3775 0 36.3366 0H2.0028C0.899218 0 0 0.899277 0 2.00294V22.1958C0 23.2995 0.899218 24.1987 2.0028 24.1987H34.3338ZM33.4754 4.04675C31.9222 7.60298 28.3662 10.0964 24.238 10.0964C20.1098 10.0964 16.5129 7.60298 14.9597 4.04675H33.4754ZM4.04648 4.04675H9.27829C8.25646 6.37669 6.37627 8.257 4.04648 9.2789V4.04675ZM4.04648 20.1929V14.9607C6.37627 15.9826 8.25646 17.8629 9.27829 20.1929H4.04648ZM12.0986 16.9636C11.5263 16.0235 10.8315 15.1242 10.0958 14.3476C9.27829 13.4892 8.29733 12.7534 7.27549 12.1402C8.29733 11.5271 9.23742 10.7913 10.0958 9.93292C10.8724 9.15628 11.5672 8.257 12.0986 7.31685C12.6708 8.257 13.3248 9.15628 14.1014 9.93292C14.9597 10.7913 15.8998 11.5271 16.9216 12.1811C15.8998 12.7943 14.9597 13.5709 14.1014 14.4293C13.3656 15.1242 12.6708 15.9826 12.0986 16.9636ZM14.9597 20.1929C16.5129 16.6366 20.0689 14.1432 24.1971 14.1432C28.3254 14.1432 31.8814 16.6366 33.4346 20.1929H14.9597Z" fill="white"/>
</svg>
