<svg xmlns="http://www.w3.org/2000/svg" width="31" height="25" fill="none" viewBox="0 0 31 25"><path fill="#fff" d="M9.91366 24.3218C21.0596 24.3218 27.1559 15.0875 27.1559 7.07951C27.1559 6.81722 27.1559 6.55612 27.1382 6.2962C28.3242 5.43835 29.348 4.37618 30.1616 3.15942C29.0556 3.64949 27.8823 3.97088 26.681 4.11285C27.946 3.35552 28.8928 2.16435 29.3452 0.761046C28.1556 1.46692 26.8542 1.96438 25.4972 2.23197C24.5835 1.26043 23.3751 0.617106 22.0589 0.401542C20.7428 0.185978 19.3923 0.410194 18.2164 1.03949C17.0406 1.66879 16.1049 2.66809 15.5542 3.88275C15.0035 5.09741 14.8684 6.45971 15.17 7.75885C12.7607 7.63807 10.4037 7.01197 8.2521 5.92119C6.10047 4.83042 4.20228 3.29935 2.68075 1.42739C1.90581 2.76145 1.66847 4.34071 2.01703 5.84363C2.3656 7.34654 3.27387 8.6601 4.55691 9.51687C3.59253 9.48828 2.64918 9.22813 1.80646 8.75837C1.80646 8.78318 1.80646 8.80917 1.80646 8.83516C1.80685 10.2343 2.29117 11.5902 3.17729 12.6729C4.06341 13.7556 5.29678 14.4985 6.66818 14.7756C5.77602 15.0189 4.83996 15.0544 3.93191 14.8795C4.31915 16.0836 5.07305 17.1366 6.08817 17.8912C7.10329 18.6457 8.32886 19.0641 9.59348 19.0879C7.44764 20.7744 4.79682 21.6899 2.06757 21.6871C1.58542 21.6862 1.10373 21.657 0.625 21.5997C3.39628 23.3781 6.62082 24.3214 9.91366 24.3171"/></svg>