<svg width="50" height="49" viewBox="0 0 50 49" fill="none" xmlns="http://www.w3.org/2000/svg">
<path d="M25 48C38.2548 48 49 37.2548 49 24H1C1 37.2548 11.7452 48 25 48Z" fill="#F7532B"/>
<path d="M49 24C49 37.2548 38.2548 48 25 48C11.7452 48 1 37.2548 1 24" stroke="black" stroke-width="2"/>
<path d="M26 40C26 31.7225 32.7225 25 41 25V24V23C32.7225 23 26 16.2775 26 8H25H24C24 16.2775 17.2775 23 9 23V24V25C17.2775 25 24 31.7225 24 40H25H26Z" fill="#F7532B" stroke="black" stroke-width="2"/>
</svg>
