<svg xmlns="http://www.w3.org/2000/svg" width="24" height="24" fill="none" viewBox="0 0 24 24"><path fill="#161616" fill-rule="evenodd" d="M19.9589 4.00809C17.854 1.90063 15.0545 0.739517 12.0721 0.738281C5.92665 0.738281 0.925125 5.73967 0.922653 11.8868C0.921829 13.8518 1.43517 15.77 2.41089 17.4608L0.829132 23.2383L6.73964 21.6878C8.36822 22.5762 10.2017 23.0444 12.0676 23.0449H12.0723C18.2171 23.0449 23.2191 18.0431 23.2215 11.8957C23.2227 8.9165 22.0641 6.1154 19.9589 4.00809ZM12.0721 21.162H12.0683C10.4055 21.1613 8.77472 20.7144 7.35171 19.8703L7.01347 19.6694L3.50609 20.5895L4.44226 17.1698L4.22185 16.8192C3.29419 15.3438 2.80434 13.6384 2.80516 11.8875C2.80708 6.77815 6.96431 2.62134 12.0758 2.62134C14.5511 2.62216 16.8778 3.58731 18.6274 5.33894C20.377 7.09057 21.3399 9.41885 21.3391 11.895C21.3369 17.0048 17.1799 21.162 12.0721 21.162ZM17.1552 14.2215C16.8767 14.082 15.507 13.4083 15.2516 13.3152C14.9964 13.2222 14.8105 13.1759 14.6249 13.4547C14.4391 13.7335 13.9053 14.3611 13.7427 14.5469C13.5801 14.7328 13.4178 14.7561 13.1392 14.6166C12.8605 14.4772 11.9629 14.1829 10.8988 13.2339C10.0707 12.4952 9.51163 11.5829 9.34903 11.3041C9.1867 11.0251 9.34765 10.8888 9.47125 10.7356C9.77283 10.3611 10.0748 9.96844 10.1676 9.78264C10.2606 9.59669 10.2141 9.43396 10.1443 9.29457C10.0748 9.15518 9.51767 7.78395 9.28558 7.22598C9.05926 6.68298 8.82979 6.75632 8.65867 6.7478C8.49635 6.7397 8.31055 6.73805 8.12474 6.73805C7.93907 6.73805 7.63722 6.80768 7.38179 7.08673C7.12649 7.36564 6.40689 8.03952 6.40689 9.41075C6.40689 10.782 7.40513 12.1067 7.54439 12.2926C7.68364 12.4785 9.50888 15.2924 12.3034 16.499C12.9681 16.7863 13.4869 16.9575 13.8916 17.0859C14.559 17.298 15.1662 17.268 15.6463 17.1963C16.1816 17.1163 17.2943 16.5223 17.5267 15.8717C17.7588 15.2209 17.7588 14.6632 17.689 14.5469C17.6195 14.4307 17.4337 14.3611 17.1552 14.2215Z" clip-rule="evenodd"/></svg>