<svg width="267" height="528" viewBox="0 0 267 528" fill="none" xmlns="http://www.w3.org/2000/svg">
<path d="M340.043 521.439L340.967 521.71L341.598 520.982L391.545 463.326L464.91 441.858L465.837 441.587L465.974 440.632L476.832 365.114L526.721 307.456L527.352 306.728L526.951 305.851L495.228 236.463L506.086 160.976L506.223 160.022L505.412 159.5L441.202 118.237L409.508 48.8489L409.108 47.9721H408.144H331.843L267.604 6.73767L266.793 6.21746L265.983 6.73784L201.773 47.9721L125.472 47.9721H124.508L124.108 48.8489L92.4141 118.237L28.1457 159.5L27.3337 160.021L27.4715 160.976L38.3588 236.464L6.63581 305.851L6.23512 306.728L6.86568 307.456L56.7533 365.112L67.4351 440.629L67.5706 441.586L68.4991 441.858L141.864 463.326L191.752 520.982L192.383 521.711L193.308 521.439L266.675 499.942L340.043 521.439ZM267.097 470.363L266.675 470.24L266.253 470.364L202.184 489.176L158.394 438.669L158.106 438.336L157.683 438.212L93.4967 419.37L83.9823 353.19L83.9195 352.754L83.6306 352.421L39.8122 301.914L67.5988 241.085L67.7818 240.684L67.7191 240.248L58.2048 174.098L114.477 137.955L114.848 137.717L115.031 137.316L142.788 76.4865H209.71H210.15L210.521 76.2486L266.793 40.1054L323.006 76.2482L323.377 76.4865H323.818H390.741L418.586 137.318L418.769 137.717L419.138 137.954L475.293 174.097L465.779 240.248L465.716 240.684L465.899 241.085L493.686 301.914L449.867 352.421L449.579 352.754L449.516 353.19L440.001 419.37L375.815 438.212L375.393 438.336L375.104 438.669L331.285 489.177L267.097 470.363Z" fill="#F7532B" stroke="black" stroke-width="3"/>
<path d="M356.025 264.294C356.025 313.542 316.076 353.466 266.794 353.466C217.512 353.466 177.563 313.542 177.563 264.294C177.563 215.047 217.512 175.122 266.794 175.122C316.076 175.122 356.025 215.047 356.025 264.294Z" fill="#F7532B" stroke="black" stroke-width="3"/>
</svg>
