<svg width="186" height="186" viewBox="0 0 186 186" fill="none" xmlns="http://www.w3.org/2000/svg">
<path d="M117.989 186H91.0122V127.218H118.131V186H117.989ZM95.2717 181.74H113.872V131.478H95.2717V181.74Z" fill="black"/>
<path d="M183.87 2.12976H2.12978V183.87H183.87V2.12976Z" fill="#F7532B"/>
<path d="M186 186H0V0H186V186ZM4.25954 181.74H181.74V4.25954H4.25954V181.74Z" fill="black"/>
<path d="M186 186H90.7282V0H186V186ZM94.9878 181.74H181.74V4.25954H94.9878V181.74Z" fill="black"/>
<path d="M183.728 93V129.348H160.869V183.87H115.86V129.348H93V2.12976C109.612 2.12976 125.089 6.53129 138.435 14.3404C165.554 29.9588 183.728 59.3496 183.728 93Z" fill="#009C71"/>
<path d="M163.14 186H113.73V131.478H90.8702V0H93C109.328 0 125.373 4.25954 139.429 12.4947C168.11 29.1069 185.858 59.9176 185.858 93V131.478H162.998V186H163.14ZM117.989 181.74H158.881V127.218H181.74V93C181.74 61.3374 164.702 31.9466 137.441 16.1863C124.521 8.66107 110.038 4.6855 95.1298 4.25954V127.218H117.989V181.74Z" fill="black"/>
<path d="M185.858 186H113.73V131.478H90.8702V93C90.8702 59.9176 108.618 28.9649 137.299 12.4947C151.356 4.25954 167.4 0 183.728 0H185.858V186ZM117.989 181.74H181.598V4.25954C166.69 4.6855 152.208 8.66107 139.429 16.0443C112.168 31.9466 95.1298 61.3374 95.1298 93V127.218H117.989V181.74Z" fill="black"/>
<path d="M47.8489 183.87C72.7851 183.87 93 163.655 93 138.719C93 113.783 72.7851 93.568 47.8489 93.568C22.9126 93.568 2.69771 113.783 2.69771 138.719C2.69771 163.655 22.9126 183.87 47.8489 183.87Z" fill="#FCC200"/>
<path d="M47.8488 186C21.7237 186 0.567932 164.844 0.567932 138.719C0.567932 112.594 21.7237 91.4382 47.8488 91.4382C73.974 91.4382 95.1298 112.594 95.1298 138.719C95.1298 164.844 73.974 186 47.8488 186ZM47.8488 95.6978C24.1374 95.6978 4.82747 115.008 4.82747 138.719C4.82747 162.431 24.1374 181.741 47.8488 181.741C71.5603 181.741 90.8702 162.431 90.8702 138.719C90.8702 115.008 71.5603 95.6978 47.8488 95.6978Z" fill="black"/>
<path d="M49.6947 93H45.4351V183.87H49.6947V93Z" fill="black"/>
<path d="M93 136.305H2.12976V140.565H93V136.305Z" fill="black"/>
<path d="M78.1855 104.802L13.9312 169.056L16.9431 172.068L81.1974 107.814L78.1855 104.802Z" fill="black"/>
<path d="M16.9431 104.802L13.9312 107.814L78.1855 172.068L81.1974 169.056L16.9431 104.802Z" fill="black"/>
<path d="M93 2.12976V47.5649C93 72.6962 72.6962 93 47.5649 93C22.4336 93 2.12978 72.6962 2.12978 47.5649V2.12976H93Z" fill="#3570F5"/>
<path d="M47.5649 95.1298C21.2977 95.1298 0 73.8321 0 47.5649V0H95.1298V47.5649C95.1298 73.8321 73.8321 95.1298 47.5649 95.1298ZM4.25954 4.25954V47.5649C4.25954 71.4183 23.7115 90.8702 47.5649 90.8702C71.4183 90.8702 90.8702 71.4183 90.8702 47.5649V4.25954H4.25954Z" fill="black"/>
<path d="M154 75C145.17 75 138 82.1702 138 91C138 82.1702 130.83 75 122 75C130.83 75 138 67.8298 138 59C138 67.8298 145.17 75 154 75Z" fill="#F7532B"/>
<path fill-rule="evenodd" clip-rule="evenodd" d="M122 77.0186V72.9814C129.715 72.9814 135.981 66.7149 135.981 59H140.019C140.019 66.7149 146.285 72.9814 154 72.9814V77.0186C146.285 77.0186 140.019 83.2851 140.019 91H135.981C135.981 83.2851 129.715 77.0186 122 77.0186ZM138 82.7105C139.713 79.4143 142.414 76.7127 145.711 75C142.414 73.2873 139.713 70.5857 138 67.2895C136.287 70.5857 133.586 73.2873 130.289 75C133.586 76.7127 136.287 79.4143 138 82.7105Z" fill="black"/>
</svg>
