<svg width="186" height="186" viewBox="0 0 186 186" fill="none" xmlns="http://www.w3.org/2000/svg">
<g clip-path="url(#clip0_678_229)">
<path d="M183.87 2.12976H2.12976V183.87H183.87V2.12976Z" fill="#F7532B"/>
<path d="M186 186H0V0H186V186ZM4.25954 181.74H181.74V4.25954H4.25954V181.74Z" fill="black"/>
<path d="M186 186H90.7282V0H186V186ZM94.9878 181.74H181.74V4.25954H94.9878V181.74Z" fill="black"/>
<path d="M2.12976 2.12976C52.2504 2.12976 92.858 42.8794 92.858 93V129.348H69.9985V183.87H2.12976V2.12976Z" fill="#009C71"/>
<path d="M72.1282 186H0V0H2.12977C53.3863 0 94.9878 41.7435 94.9878 93V131.478H72.1282V186ZM4.25954 181.74H67.8687V127.218H90.7282V93C90.7282 44.7252 52.1084 5.39542 4.25954 4.25954V181.74Z" fill="black"/>
<path d="M157.177 93H146.386H93V39.6137V28.8229C93 14.0565 104.927 2.12976 119.693 2.12976C134.46 2.12976 146.386 14.0565 146.386 28.8229V39.6137H157.177C171.944 39.6137 183.87 51.5405 183.87 66.3069C183.87 81.0733 171.944 93 157.177 93Z" fill="#FCC200"/>
<path d="M157.177 95.1298H90.8702V28.8229C90.8702 21.1557 93.8519 13.9145 99.2473 8.3771C104.643 2.98168 111.884 0 119.693 0C127.36 0 134.602 2.98168 139.997 8.3771C145.392 13.7725 148.374 21.0137 148.374 28.8229V37.484H157.035C172.937 37.484 185.858 50.4046 185.858 66.3069C185.858 73.974 182.876 81.2153 177.481 86.6107C172.086 92.0061 164.844 95.1298 157.177 95.1298ZM95.1298 90.8702H157.177C163.708 90.8702 169.956 88.3145 174.499 83.629C179.185 78.9435 181.74 72.8382 181.74 66.3069C181.74 52.8183 170.666 41.7435 157.177 41.7435H144.256V28.8229C144.256 22.2916 141.701 16.0443 137.015 11.5008C132.33 6.81527 126.224 4.25954 119.693 4.25954C113.162 4.25954 106.915 6.81527 102.371 11.5008C97.6855 16.1863 95.1298 22.2916 95.1298 28.8229V90.8702Z" fill="black"/>
<path d="M181.456 95.1297C187.704 118.699 181.598 144.682 163.282 163.14C144.966 181.598 118.699 187.704 95.2718 181.314C89.0244 157.887 95.1298 131.762 113.446 113.304C131.762 94.8457 158.029 88.8824 181.456 95.1297Z" fill="#6D4E99"/>
<path d="M113.304 185.858C107.056 185.858 100.809 185.006 94.7038 183.444L93.5679 183.16L93.2839 182.024C86.6107 157.035 93.8519 130.2 112.026 111.884C130.2 93.5679 157.177 86.4686 182.166 93.1419L183.302 93.4259L183.586 94.5618C190.26 119.551 183.018 146.386 164.844 164.702C150.93 178.475 132.33 185.858 113.304 185.858ZM96.9756 179.611C120.119 185.29 144.824 178.475 161.721 161.579C178.617 144.682 185.432 119.977 179.753 96.8335C156.609 91.1541 131.904 97.9694 115.008 114.866C98.1114 131.762 91.1542 156.467 96.9756 179.611Z" fill="black"/>
<path d="M138.435 173.789C157.961 173.789 173.789 157.961 173.789 138.435C173.789 118.91 157.961 103.081 138.435 103.081C118.91 103.081 103.081 118.91 103.081 138.435C103.081 157.961 118.91 173.789 138.435 173.789Z" fill="#3570F5"/>
<path d="M138.435 175.919C117.705 175.919 100.951 159.023 100.951 138.435C100.951 117.847 117.847 100.951 138.435 100.951C159.023 100.951 175.919 117.847 175.919 138.435C175.919 159.023 159.165 175.919 138.435 175.919ZM138.435 105.211C120.119 105.211 105.211 120.119 105.211 138.435C105.211 156.751 120.119 171.66 138.435 171.66C156.751 171.66 171.66 156.751 171.66 138.435C171.66 120.119 156.751 105.211 138.435 105.211Z" fill="black"/>
<path d="M138.435 155.473C147.845 155.473 155.473 147.845 155.473 138.435C155.473 129.025 147.845 121.397 138.435 121.397C129.025 121.397 121.397 129.025 121.397 138.435C121.397 147.845 129.025 155.473 138.435 155.473Z" fill="#F7532B"/>
<path d="M138.435 157.603C127.928 157.603 119.267 148.942 119.267 138.435C119.267 127.928 127.928 119.267 138.435 119.267C148.942 119.267 157.603 127.928 157.603 138.435C157.603 148.942 148.942 157.603 138.435 157.603ZM138.435 123.527C130.2 123.527 123.527 130.2 123.527 138.435C123.527 146.67 130.2 153.344 138.435 153.344C146.67 153.344 153.344 146.67 153.344 138.435C153.344 130.2 146.67 123.527 138.435 123.527Z" fill="black"/>
<path d="M61 75C52.1702 75 45 82.1702 45 91C45 82.1702 37.8298 75 29 75C37.8298 75 45 67.8298 45 59C45 67.8298 52.1702 75 61 75Z" fill="#F7532B"/>
<path fill-rule="evenodd" clip-rule="evenodd" d="M29 77.0186V72.9814C36.7149 72.9814 42.9814 66.7149 42.9814 59H47.0186C47.0186 66.7149 53.2851 72.9814 61 72.9814V77.0186C53.2851 77.0186 47.0186 83.2851 47.0186 91H42.9814C42.9814 83.2851 36.7149 77.0186 29 77.0186ZM45 82.7105C46.7127 79.4143 49.4143 76.7127 52.7105 75C49.4143 73.2873 46.7127 70.5857 45 67.2895C43.2873 70.5857 40.5857 73.2873 37.2895 75C40.5857 76.7127 43.2873 79.4143 45 82.7105Z" fill="black"/>
</g>
<defs>
<clipPath id="clip0_678_229">
<rect width="186" height="186" fill="white"/>
</clipPath>
</defs>
</svg>
