<svg width="90" height="96" viewBox="0 0 90 96" fill="none" xmlns="http://www.w3.org/2000/svg">
<path d="M83.7012 36.4658L86.5043 34.5471L83.1087 34.6409L62.6903 35.2051L69.5367 15.9745L70.6751 12.7769L67.9849 14.8465L51.8003 27.2972L46.0274 7.7172L45.0682 4.46399L44.109 7.7172L38.336 27.2972L22.1514 14.8465L19.4612 12.7769L20.5996 15.9745L27.4461 35.2051L7.02762 34.6409L3.63206 34.5471L6.43517 36.4658L23.2824 47.9972L6.43499 59.5344L3.63346 61.4528L7.02762 61.3591L27.4461 60.7949L20.5996 80.0255L19.4612 83.2231L22.1514 81.1535L38.336 68.7028L44.109 88.2828L45.0682 91.536L46.0274 88.2828L51.8003 68.7028L67.9849 81.1535L70.6751 83.2231L69.5367 80.0255L62.6903 60.7949L83.1087 61.3591L86.5029 61.4528L83.7014 59.5344L66.8539 47.9972L83.7012 36.4658Z" fill="#FCC200" stroke="black" stroke-width="2"/>
</svg>
