<svg width="167" height="176" viewBox="0 0 167 176" fill="none" xmlns="http://www.w3.org/2000/svg">
<path d="M159.838 64.1063L162.641 62.1877L159.245 62.2815L116.949 63.4502L131.131 23.6136L132.27 20.416L129.58 22.4856L96.0541 48.2765L84.0955 7.7172L83.1364 4.46399L82.1772 7.7172L70.2186 48.2765L36.6931 22.4856L34.0029 20.416L35.1413 23.6136L49.3239 63.4502L7.02762 62.2815L3.63206 62.1877L6.43517 64.1063L41.335 87.9943L6.43499 111.894L3.63346 113.812L7.02762 113.718L49.3239 112.55L35.1413 152.386L34.0029 155.584L36.6931 153.514L70.2186 127.723L82.1772 168.283L83.1364 171.536L84.0955 168.283L96.0541 127.723L129.58 153.514L132.27 155.584L131.131 152.386L116.949 112.55L159.245 113.718L162.639 113.812L159.838 111.894L124.938 87.9943L159.838 64.1063Z" fill="#F7532B" stroke="black" stroke-width="2"/>
</svg>
