<svg width="378" height="49" viewBox="0 0 378 49" fill="none" xmlns="http://www.w3.org/2000/svg">
<g clip-path="url(#clip0_554_1672)">
<path d="M24.5437 31.8713C22.0005 35.7769 20.6465 40.3308 20.6448 44.9846V48.8642H28.4426V44.9846C28.4277 40.3327 27.0747 35.7824 24.5437 31.8713V31.8713Z" fill="#008761"/>
<path d="M20.6642 0V3.87965C20.662 8.55819 22.0157 13.1381 24.5631 17.0705C27.1024 13.1344 28.4555 8.55693 28.462 3.87965V0H20.6642Z" fill="#008761"/>
<path d="M17.0773 24.403C20.0601 22.5016 22.5939 19.9803 24.5047 17.0123C21.9573 13.0799 20.6036 8.49999 20.6058 3.82146V0H5.84838C4.29729 0 2.80973 0.613122 1.71295 1.70449C0.616166 2.79585 0 4.27606 0 5.81948L0 43.0641C0 44.6075 0.616166 46.0878 1.71295 47.1791C2.80973 48.2705 4.29729 48.8836 5.84838 48.8836H20.6643V45.004C20.666 40.3502 22.02 35.7963 24.5632 31.8907C22.6536 28.8758 20.0972 26.3188 17.0773 24.403V24.403ZM7.68087 7.64291H20.2354C19.5289 10.6885 17.9778 13.4756 15.7584 15.6875C13.539 17.8993 10.7404 19.4471 7.68087 20.1548V7.64291ZM7.68087 41.1437V28.6706C10.7364 29.3732 13.5327 30.9145 15.752 33.1194C17.9713 35.3242 19.5246 38.1043 20.2354 41.1437H7.68087Z" fill="#008761"/>
<path d="M68.8159 42.521C68.4384 38.8565 67.232 35.3247 65.2874 32.1903C63.3427 29.0559 60.7101 26.4002 57.587 24.4224C54.2978 22.3015 50.5358 21.016 46.6311 20.6785L46.3971 20.4652C45.8257 20.4952 45.253 20.4952 44.6816 20.4652H43.6679L43.5119 20.6009C39.4043 20.9076 35.4412 22.2422 31.9906 24.4806C29.0005 26.3957 26.4605 28.9298 24.5437 31.9101C22.0005 35.8157 20.6465 40.3696 20.6448 45.0233V48.903H63.065C63.876 48.8932 64.676 48.7157 65.4144 48.3818C66.1527 48.0478 66.8132 47.5647 67.3538 46.9632C67.899 46.3675 68.3112 45.6636 68.5632 44.898C68.8153 44.1323 68.9014 43.3222 68.8159 42.521ZM28.7935 41.1437C29.6648 37.5345 31.7103 34.3129 34.6119 31.98C37.5134 29.6471 41.1083 28.3336 44.8376 28.2439C48.5434 28.3543 52.1092 29.6783 54.9818 32.0106C57.8544 34.343 59.8734 37.5533 60.7256 41.1437H28.7935Z" fill="#008761"/>
<path d="M67.3537 1.93983C66.8131 1.33825 66.1526 0.855144 65.4143 0.521195C64.676 0.187246 63.8759 0.00975532 63.0649 0L20.6642 0V3.87965C20.662 8.55819 22.0157 13.1381 24.5631 17.0705C26.4723 20.07 29.0297 22.6081 32.049 24.5C35.8067 26.9094 40.1547 28.2509 44.623 28.3796H44.7595C49.3352 28.3131 53.8001 26.9688 57.6454 24.5C60.7742 22.5061 63.4059 19.8299 65.3412 16.6741C67.2765 13.5182 68.4647 9.96551 68.8158 6.28504C68.8885 5.49945 68.7961 4.70741 68.5443 3.95932C68.2926 3.21123 67.8871 2.52347 67.3537 1.93983V1.93983ZM46.397 20.4652C45.8256 20.4952 45.253 20.4952 44.6815 20.4652H43.6678C40.1356 20.176 36.7883 18.7727 34.113 16.4596C31.4378 14.1464 29.5742 11.0441 28.7934 7.60412H60.8035C60.0302 10.9654 58.2303 14.0062 55.6508 16.3089C53.0714 18.6117 49.8389 20.0635 46.397 20.4652V20.4652Z" fill="#008761"/>
<path d="M117.962 27.5068C118.944 28.4604 119.7 29.6211 120.172 30.9035C120.644 32.1858 120.822 33.5573 120.691 34.9169C120.691 39.4819 119.079 42.715 115.856 44.616C111.675 46.6967 107.012 47.634 102.347 47.3318H91.0787C90.5617 47.3318 90.0658 47.1274 89.7003 46.7636C89.3347 46.3998 89.1293 45.9064 89.1293 45.3919L89.2462 5.60612C89.2462 5.09164 89.4516 4.59824 89.8172 4.23445C90.1828 3.87066 90.6787 3.66629 91.1957 3.66629H100.748C112.861 3.80854 118.917 7.54594 118.917 14.8785C118.957 16.0305 118.768 17.179 118.36 18.2577C117.951 19.3364 117.332 20.324 116.539 21.1635C114.963 22.7804 112.918 23.8657 110.69 24.2672C113.368 24.6594 115.884 25.7806 117.962 27.5068V27.5068ZM109.501 39.7277C110.352 39.1605 111.03 38.3727 111.463 37.4495C111.896 36.5264 112.067 35.503 111.957 34.4901C112.053 33.4719 111.893 32.446 111.492 31.5047C111.09 30.5634 110.46 29.7361 109.657 29.0974C107.767 27.9118 105.552 27.3422 103.321 27.468H97.4729V41.0467H102.366C104.818 41.2149 107.273 40.7611 109.501 39.7277V39.7277ZM97.6289 9.83494V21.6485H102.736C104.696 21.7648 106.638 21.2253 108.253 20.116C108.922 19.5676 109.448 18.867 109.788 18.0736C110.127 17.2802 110.269 16.4172 110.203 15.5574C110.295 14.6988 110.147 13.8317 109.775 13.0514C109.404 12.2711 108.823 11.6079 108.097 11.1346C106.038 10.1415 103.753 9.70021 101.469 9.85433L97.6289 9.83494Z" fill="#008761"/>
<path d="M127.962 46.1097C127.199 45.2468 126.614 44.242 126.243 43.1533C125.872 42.0646 125.721 40.9135 125.798 39.7664V2.3666C125.795 1.89003 125.968 1.42886 126.284 1.07109C126.601 0.713307 127.039 0.483952 127.514 0.426774L131.881 1.24855e-05C132.153 -0.0271832 132.427 0.00280819 132.687 0.0880407C132.946 0.173273 133.185 0.311842 133.387 0.494757C133.589 0.677673 133.751 0.900846 133.861 1.1498C133.97 1.39875 134.027 1.66792 134.025 1.93984L133.908 39.5531C133.908 41.1049 134.532 41.8809 135.858 41.9003C136.52 41.8957 137.177 41.791 137.807 41.5899L139.503 47.2736C137.803 48.022 135.962 48.399 134.103 48.3793C132.977 48.4503 131.848 48.285 130.79 47.894C129.732 47.503 128.769 46.8951 127.962 46.1097V46.1097Z" fill="#008761"/>
<path d="M169.018 41.5511C169.498 42.2236 170.181 42.7264 170.968 42.9865L169.739 46.8662C169.592 47.3071 169.291 47.6808 168.89 47.9193C168.489 48.1578 168.016 48.2453 167.556 48.1659C166.509 47.9678 165.506 47.5869 164.593 47.0408C163.279 46.1967 162.295 44.9302 161.805 43.4521C160.742 45.0632 159.26 46.3571 157.516 47.1959C155.687 48.0442 153.686 48.4624 151.668 48.418C150.223 48.4872 148.779 48.2689 147.42 47.7759C146.061 47.2829 144.814 46.5252 143.753 45.5471C142.775 44.5747 142.012 43.41 141.511 42.1274C141.011 40.8448 140.785 39.4725 140.848 38.0982C140.763 36.5049 141.075 34.9154 141.755 33.4706C142.435 32.0257 143.463 30.7702 144.747 29.8151C148.131 27.7117 152.093 26.7209 156.074 26.983H160.265V25.0431C160.352 24.2284 160.265 23.4047 160.009 22.6258C159.754 21.847 159.336 21.1305 158.783 20.5233C157.398 19.5367 155.704 19.0757 154.007 19.2237C151.584 19.2739 149.181 19.6724 146.872 20.407C146.397 20.5382 145.889 20.4851 145.451 20.2583C145.013 20.0315 144.678 19.6479 144.513 19.1849L143.851 17.245C143.768 17.0018 143.736 16.7448 143.754 16.4889C143.772 16.233 143.842 15.9832 143.958 15.7541C144.074 15.525 144.234 15.321 144.43 15.1541C144.626 14.9871 144.853 14.8605 145.098 14.7815C148.423 13.6731 151.904 13.0969 155.411 13.0744C163.988 13.0744 168.271 16.9153 168.258 24.597V38.6025C168.216 39.6382 168.48 40.6634 169.018 41.5511ZM160.44 38.4667V31.7161H157.087C151.889 31.7161 149.29 33.656 149.29 37.5356C149.211 38.8837 149.642 40.2121 150.498 41.2601C150.955 41.7277 151.51 42.0899 152.123 42.3212C152.736 42.5524 153.392 42.6471 154.046 42.5986C155.394 42.5729 156.707 42.1723 157.837 41.442C158.967 40.7117 159.869 39.681 160.44 38.4667Z" fill="#008761"/>
<path d="M195.433 14.219C196.657 14.6616 197.817 15.2616 198.884 16.0036C199.295 16.309 199.568 16.7634 199.645 17.2681C199.722 17.7729 199.595 18.2873 199.293 18.7L197.87 20.6398C197.588 21.006 197.183 21.2598 196.729 21.3558C196.275 21.4519 195.802 21.3837 195.394 21.1635C194.771 20.8067 194.119 20.5018 193.445 20.2518C192.329 19.8692 191.155 19.6789 189.975 19.6893C184.945 19.6893 182.417 23.4849 182.391 31.076C182.136 34.0041 182.819 36.9374 184.341 39.4561C184.988 40.2997 185.833 40.9737 186.801 41.4198C187.769 41.8659 188.831 42.0708 189.897 42.0167C191.014 42.0357 192.125 41.8448 193.172 41.4541C193.842 41.18 194.493 40.8624 195.121 40.5036C195.54 40.2787 196.026 40.2137 196.489 40.3209C196.953 40.4281 197.36 40.7 197.636 41.0855L199.137 43.2194C199.425 43.64 199.535 44.1563 199.444 44.6571C199.353 45.1579 199.068 45.6029 198.65 45.8963C195.919 47.6408 192.732 48.545 189.487 48.4957C186.555 48.5662 183.661 47.8276 181.124 46.3619C178.743 44.9402 176.848 42.8379 175.685 40.329C174.334 37.447 173.667 34.2943 173.736 31.1148C173.684 27.8869 174.349 24.6875 175.685 21.7455C176.906 19.1689 178.857 17.0043 181.3 15.5186C183.8 14.0111 186.681 13.244 189.604 13.3072C191.586 13.2711 193.559 13.5797 195.433 14.219V14.219Z" fill="#008761"/>
<path d="M210.542 47.6227H206.272C205.755 47.6227 205.259 47.4183 204.894 47.0545C204.528 46.6908 204.323 46.1974 204.323 45.6829L204.44 2.56057C204.436 2.08399 204.609 1.62283 204.926 1.26505C205.242 0.907273 205.68 0.677918 206.155 0.62074L210.425 0.17458C210.695 0.150267 210.967 0.182409 211.225 0.268948C211.482 0.355486 211.718 0.494514 211.918 0.677126C212.118 0.859738 212.277 1.08191 212.386 1.32941C212.495 1.57691 212.551 1.84428 212.549 2.11441L212.491 45.7217C212.481 46.2294 212.271 46.7129 211.906 47.0683C211.542 47.4238 211.052 47.6228 210.542 47.6227ZM221.458 28.981L231.713 44.7324C231.891 45.0231 231.989 45.3553 231.997 45.6957C232.005 46.036 231.923 46.3725 231.759 46.6713C231.595 46.9701 231.355 47.2207 231.063 47.3979C230.77 47.5751 230.437 47.6727 230.095 47.6809H225.396C225.068 47.6783 224.746 47.5934 224.46 47.434C224.174 47.2746 223.933 47.046 223.759 46.7692L212.842 29.4077L223.525 15.0724C223.705 14.8341 223.937 14.6402 224.204 14.5056C224.471 14.371 224.766 14.2995 225.065 14.2965H228.808C229.17 14.3095 229.522 14.4228 229.823 14.6236C230.124 14.8244 230.363 15.1047 230.513 15.4332C230.663 15.7616 230.717 16.1252 230.671 16.4829C230.625 16.8407 230.479 17.1785 230.251 17.4584L221.458 28.981Z" fill="#008761"/>
<path d="M238.38 46.4201C237.613 45.5546 237.026 44.5471 236.651 43.4553C236.276 42.3635 236.122 41.2088 236.196 40.0575L236.313 2.65761C236.31 2.18104 236.483 1.71987 236.799 1.36209C237.116 1.00432 237.553 0.774961 238.029 0.717783L242.298 0.252225C242.569 0.227911 242.841 0.260053 243.098 0.346592C243.355 0.433131 243.592 0.572158 243.792 0.754771C243.992 0.937383 244.151 1.15955 244.26 1.40705C244.369 1.65456 244.424 1.92193 244.423 2.19205V39.8247C244.423 41.3765 245.047 42.1525 246.373 42.1525C247.035 42.1597 247.695 42.0547 248.322 41.8421L250.018 47.5258C248.319 48.2803 246.478 48.6639 244.618 48.6509C243.478 48.7435 242.332 48.5923 241.256 48.2075C240.18 47.8228 239.199 47.2133 238.38 46.4201V46.4201Z" fill="#008761"/>
<path d="M280.098 33.6172H259.064C259.072 36.1605 259.968 38.622 261.598 40.5812C262.355 41.2889 263.248 41.8388 264.222 42.1985C265.196 42.5583 266.233 42.7207 267.271 42.6762C268.7 42.6891 270.12 42.446 271.462 41.9584C272.4 41.6017 273.307 41.1669 274.172 40.6588C274.586 40.4224 275.072 40.3452 275.539 40.4417C276.006 40.5382 276.421 40.8018 276.706 41.1825L277.876 42.7926C278.025 43.0011 278.132 43.237 278.189 43.4867C278.247 43.7364 278.254 43.995 278.211 44.2475C278.167 44.5 278.074 44.7414 277.936 44.9578C277.798 45.1742 277.619 45.3613 277.408 45.5083C274.208 47.6746 270.42 48.8183 266.549 48.7866C264.374 48.902 262.199 48.5414 260.178 47.7304C258.157 46.9193 256.339 45.6775 254.853 44.0923C251.92 40.5013 250.445 35.9474 250.72 31.3282C250.689 28.1787 251.306 25.0563 252.533 22.1528C253.608 19.5898 255.393 17.3833 257.679 15.7902C260.045 14.2321 262.837 13.4394 265.672 13.5206C267.71 13.4092 269.746 13.754 271.632 14.5295C273.518 15.305 275.206 16.4914 276.57 18.0016C279.343 21.5231 280.729 25.9307 280.469 30.3971C280.313 30.7657 280.235 31.852 280.098 33.6172ZM272.3 27.9917C272.3 22.1722 270.136 19.2043 265.789 19.2043C264.891 19.1549 263.994 19.3233 263.176 19.695C262.357 20.0667 261.642 20.6305 261.091 21.3381C259.796 23.431 259.121 25.8446 259.141 28.3021H272.339L272.3 27.9917Z" fill="#008761"/>
<path d="M311.407 41.939C311.608 42.2492 311.866 42.5189 312.167 42.7344C312.488 42.9724 312.727 43.3031 312.853 43.6814C312.979 44.0597 312.984 44.4673 312.869 44.8488L312.108 47.1766C311.966 47.6135 311.672 47.9859 311.279 48.2274C310.887 48.469 310.42 48.564 309.964 48.4956C308.915 48.3063 307.91 47.9248 307.001 47.3705C305.715 46.5396 304.747 45.3032 304.252 43.8595C303.189 45.4706 301.707 46.7645 299.963 47.6033C298.163 48.4372 296.197 48.8549 294.212 48.8254C292.769 48.8961 291.326 48.6803 289.967 48.1908C288.608 47.7012 287.361 46.9476 286.298 45.9739C285.325 44.9936 284.565 43.8248 284.065 42.5401C283.565 41.2553 283.337 39.882 283.393 38.5055C283.319 36.9038 283.645 35.3088 284.343 33.8633C285.04 32.4177 286.087 31.1668 287.389 30.2225C290.772 28.1191 294.735 27.1283 298.716 27.3903H302.907V25.4505C302.994 24.6358 302.906 23.8121 302.651 23.0332C302.396 22.2543 301.978 21.5379 301.425 20.9307C300.036 19.9533 298.345 19.4933 296.649 19.631C294.226 19.6813 291.823 20.0798 289.514 20.8143C289.041 20.9466 288.535 20.8963 288.098 20.6732C287.66 20.4502 287.324 20.0711 287.155 19.6116L286.492 17.6718C286.41 17.4286 286.377 17.1716 286.396 16.9157C286.414 16.6597 286.483 16.41 286.599 16.1809C286.715 15.9517 286.876 15.7478 287.072 15.5808C287.268 15.4139 287.495 15.2872 287.74 15.2082C291.057 14.1303 294.524 13.5804 298.014 13.5788C306.591 13.5788 310.874 17.4196 310.861 25.1013V39.1069C310.786 40.0825 310.974 41.0603 311.407 41.939V41.939ZM302.829 38.7965V32.1041H299.476C294.277 32.1041 291.678 34.0439 291.678 37.9236C291.6 39.2716 292.031 40.6001 292.887 41.6481C293.344 42.1157 293.898 42.4779 294.511 42.7092C295.124 42.9404 295.781 43.0351 296.435 42.9865C297.789 42.958 299.107 42.5496 300.239 41.8083C301.37 41.0671 302.268 40.0231 302.829 38.7965V38.7965Z" fill="#008761"/>
<path d="M346.653 2.96797L346.536 46.0903C346.536 46.6048 346.33 47.0982 345.965 47.462C345.599 47.8257 345.103 48.0301 344.586 48.0301H341.019C340.546 48.0348 340.087 47.8681 339.728 47.5611C339.37 47.2542 339.135 46.828 339.069 46.3619L338.718 43.8013C337.737 45.3456 336.401 46.6355 334.819 47.5646C333.118 48.5107 331.193 48.9863 329.244 48.9418C327.374 49.034 325.512 48.6407 323.841 47.8007C322.169 46.9607 320.746 45.7028 319.711 44.1505C317.33 40.2876 316.188 35.7949 316.436 31.27C316.39 28.1322 316.959 25.0154 318.113 22.0947C319.076 19.6142 320.717 17.4509 322.85 15.8484C324.988 14.3192 327.567 13.5227 330.199 13.5788C331.762 13.5696 333.309 13.8878 334.74 14.5128C336.171 15.1378 337.453 16.0555 338.504 17.2063V2.42482C338.503 2.1547 338.558 1.88733 338.667 1.63983C338.776 1.39233 338.935 1.17015 339.135 0.987542C339.336 0.80493 339.572 0.665902 339.829 0.579363C340.086 0.492825 340.358 0.460683 340.629 0.484996L344.898 0.969953C345.391 1.01893 345.847 1.2527 346.172 1.62379C346.498 1.99489 346.67 2.47548 346.653 2.96797V2.96797ZM335.326 41.7645C336.577 40.9073 337.638 39.8049 338.445 38.525V23.2585C337.65 22.1969 336.665 21.2896 335.541 20.5816C334.493 19.9952 333.312 19.6878 332.11 19.6893C331.07 19.6675 330.043 19.922 329.135 20.4267C328.227 20.9313 327.47 21.6678 326.944 22.5602C325.487 25.2106 324.812 28.216 324.994 31.2312C324.772 34.2768 325.336 37.3283 326.632 40.0962C327.106 40.9396 327.804 41.6372 328.65 42.1127C329.496 42.5882 330.457 42.8234 331.427 42.7926C332.793 42.8264 334.139 42.4696 335.307 41.7645H335.326Z" fill="#008761"/>
<path d="M375.934 19.3983L374.783 21.0665C374.514 21.4538 374.112 21.7303 373.653 21.8445C373.194 21.9587 372.709 21.9028 372.288 21.6873C370.179 20.4791 367.8 19.8124 365.368 19.7475C364.056 19.6674 362.751 19.9853 361.625 20.6592C361.21 20.9149 360.869 21.2722 360.634 21.6968C360.398 22.1214 360.276 22.599 360.279 23.0839C360.245 23.7752 360.444 24.458 360.845 25.0238C361.409 25.6594 362.117 26.1516 362.911 26.4592C364.346 27.0517 365.817 27.5507 367.317 27.9529C370.274 28.6048 373.037 29.9331 375.388 31.8326C376.28 32.6962 376.975 33.7409 377.426 34.8957C377.877 36.0505 378.073 37.2883 378 38.525C378.039 40.0561 377.685 41.5719 376.972 42.9295C376.259 44.287 375.211 45.4415 373.926 46.2843C370.926 48.2187 367.4 49.1872 363.827 49.0582C361.269 49.0804 358.727 48.6468 356.322 47.7779C354.831 47.2283 353.415 46.4917 352.111 45.5859C351.899 45.4254 351.723 45.2233 351.593 44.9923C351.462 44.7612 351.381 44.5061 351.353 44.2425C351.326 43.979 351.353 43.7126 351.433 43.4599C351.513 43.2072 351.644 42.9735 351.819 42.7732L353.398 41.0079C353.706 40.6732 354.123 40.4569 354.576 40.3967C355.028 40.3364 355.487 40.436 355.874 40.6782C358.187 42.2055 360.895 43.0342 363.671 43.0642C365.194 43.1391 366.706 42.7681 368.019 41.9973C368.529 41.6952 368.949 41.2621 369.233 40.7434C369.518 40.2247 369.657 39.6394 369.637 39.0487C369.69 38.2373 369.485 37.4298 369.052 36.7403C368.491 36.0444 367.75 35.5144 366.908 35.2079C365.32 34.5847 363.699 34.0472 362.053 33.5978C359.237 32.9943 356.633 31.6552 354.509 29.7182C353.715 28.8906 353.096 27.9134 352.687 26.844C352.279 25.7746 352.09 24.6346 352.131 23.4913C352.117 21.6995 352.684 19.9511 353.749 18.506C354.938 16.9678 356.52 15.7754 358.33 15.0531C360.477 14.189 362.779 13.7667 365.095 13.8116C368.741 13.7612 372.323 14.7652 375.407 16.7019C375.62 16.8444 375.802 17.0272 375.944 17.2399C376.086 17.4526 376.184 17.691 376.233 17.9414C376.281 18.1919 376.28 18.4495 376.229 18.6995C376.178 18.9495 376.077 19.1869 375.934 19.3983Z" fill="#008761"/>
</g>
<defs>
<clipPath id="clip0_554_1672">
<rect width="378" height="49" fill="white"/>
</clipPath>
</defs>
</svg>
